<svg width="70" height="20" viewBox="0 0 70 20" fill="none" xmlns="http://www.w3.org/2000/svg">
<path d="M36.835 8.30019H38.8058V0.927246H36.835V8.30019Z" fill="#151515"/>
<path d="M18.6893 8.2279H20.5922V5.27873L21.2922 5.24981C22.0534 5.2209 22.3253 5.11247 22.5903 4.7366C22.7194 4.54866 22.733 4.41855 22.7534 3.29092C22.7738 2.1127 22.767 2.03319 22.6175 1.72237C22.502 1.48383 22.3796 1.35372 22.1214 1.21638C21.7952 1.0429 21.7408 1.03567 20.2388 1.01399L18.6893 0.992301V8.2279ZM21.1155 2.30787C21.1767 2.36569 21.2039 2.597 21.2039 3.13913C21.2039 3.82582 21.1903 3.89088 21.0544 3.99208C20.9728 4.05713 20.8301 4.10773 20.7486 4.10773C20.5922 4.10773 20.5922 4.1005 20.5922 3.12467V2.13438L20.8097 2.18498C20.9253 2.20667 21.0612 2.26449 21.1155 2.30787Z" fill="#151515"/>
<path d="M24.6427 4.44746C24.3913 6.34853 24.167 7.97491 24.1466 8.06165L24.1126 8.2279H26.0835L26.1379 7.59181L26.199 6.96294L26.5456 6.94125C26.8854 6.91957 26.8922 6.9268 26.9398 7.15088C26.9602 7.27376 26.9806 7.51952 26.9806 7.68577C26.9806 8.24236 26.9534 8.2279 28.0136 8.2279H28.9651L28.9243 8.02551C28.8903 7.8448 27.8641 1.07904 27.8641 1.02121C27.8641 1.01399 27.2456 0.99953 26.4845 0.99953H25.0981L24.6427 4.44746ZM26.7155 4.0499C26.8854 5.87145 26.9058 5.69797 26.5049 5.69797C26.3214 5.69797 26.1651 5.66906 26.1651 5.64014C26.1651 5.56786 26.4097 3.48609 26.4777 3.00179C26.5049 2.81385 26.5388 2.67651 26.5592 2.69097C26.5728 2.71265 26.6476 3.31984 26.7155 4.0499Z" fill="#151515"/>
<path d="M30.7185 8.2279H32.6214L32.635 6.76054L32.6553 5.30041L33.335 5.25704C34.667 5.17753 34.9253 4.77274 34.8437 2.89336C34.7961 1.78742 34.6738 1.49106 34.1505 1.21638C33.8243 1.0429 33.7563 1.03567 32.268 1.01399L30.7185 0.992301V8.2279ZM33.1651 2.34401C33.2398 2.42352 33.267 2.61869 33.267 3.13913C33.267 3.78245 33.2534 3.84028 33.1039 3.97039C33.0155 4.04267 32.8728 4.10773 32.7845 4.10773H32.6214V2.13438L32.8388 2.18498C32.9612 2.2139 33.1107 2.27895 33.1651 2.34401Z" fill="#151515"/>
<path d="M40.7087 8.30019H42.1359V6.78223H40.7087V8.30019Z" fill="#151515"/>
<path d="M39.8592 11.9939C39.1117 12.124 38.5612 12.5432 38.3505 13.1287C38.2418 13.4323 38.2282 13.7215 38.2282 15.7816C38.2282 17.979 38.235 18.1091 38.3709 18.4199C38.6699 19.0994 39.2816 19.5042 40.0155 19.5042C40.4981 19.5042 40.8039 19.3885 41.0418 19.1138C41.2524 18.8753 41.2932 18.8753 41.3816 19.1427L41.4495 19.3596H42.6117V15.5286H40.4369V16.0273C40.4369 16.5261 40.4369 16.5333 40.6272 16.555C40.7903 16.5767 40.8107 16.6056 40.8311 16.9019C40.8651 17.4007 40.7767 18.1235 40.6612 18.2392C40.532 18.3765 40.3418 18.3765 40.2058 18.232C40.1107 18.138 40.0971 17.8055 40.0971 15.7454C40.0971 13.6853 40.1107 13.3528 40.2058 13.2588C40.3418 13.1143 40.5321 13.1143 40.6408 13.2516C40.6884 13.3167 40.7427 13.6564 40.7631 14.0467L40.7971 14.7334H42.6117V14.2275C42.6117 13.9528 42.5777 13.5552 42.5369 13.3456C42.3466 12.3914 41.0961 11.7626 39.8592 11.9939Z" fill="#151515"/>
<path d="M58.1748 11.9577C56.8699 12.1818 56.4689 12.6083 56.4486 13.8227C56.435 15.0081 56.5913 15.2828 57.8214 16.1357C58.2971 16.4682 58.7456 16.808 58.8204 16.8947C58.9155 17.0176 58.9563 17.1911 58.9767 17.5525C59.0039 17.979 58.9835 18.0657 58.8612 18.1958C58.6913 18.3765 58.4942 18.391 58.3515 18.232C58.2699 18.1452 58.2427 17.9645 58.2427 17.473V16.8297H56.4554L56.4961 17.5236C56.5505 18.3765 56.7 18.7596 57.0942 19.0632C57.4952 19.3741 57.9573 19.5042 58.6845 19.5042C59.3573 19.5042 59.799 19.3813 60.2136 19.0921C60.6282 18.8102 60.7165 18.5645 60.7437 17.6609C60.7913 16.1791 60.601 15.8611 59.0515 14.878C58.3583 14.4371 58.2359 14.2925 58.1952 13.8443C58.1612 13.4757 58.2903 13.1866 58.501 13.1577C58.7728 13.1143 58.8544 13.2588 58.8544 13.801V14.2997H60.6418L60.601 13.642C60.5534 12.9047 60.4447 12.6228 60.0777 12.3625C59.6903 12.0879 58.6845 11.871 58.1748 11.9577Z" fill="#151515"/>
<path d="M67.1592 11.9939C66.6835 12.0806 66.4049 12.2107 66.1058 12.4854C65.7796 12.789 65.6913 13.1143 65.6845 13.9383C65.6845 15.0659 65.8884 15.3623 67.3427 16.3454C68.1107 16.8658 68.199 16.9959 68.199 17.6465C68.199 18.1669 68.1039 18.3476 67.8185 18.3476C67.5602 18.3476 67.4854 18.1525 67.4854 17.473V16.8297H65.7185V17.2417C65.7185 17.4658 65.7524 17.8561 65.7932 18.1163C65.8884 18.6874 66.1534 19.0415 66.6903 19.2945C67.0029 19.4463 67.1456 19.468 67.8932 19.468C68.668 19.468 68.7767 19.4536 69.1233 19.2801C69.8233 18.9259 70 18.5645 70 17.4585C70 16.2153 69.735 15.8032 68.4233 14.972C68.0359 14.7262 67.6554 14.4515 67.5874 14.372C67.4107 14.1696 67.3699 13.5552 67.5126 13.3239C67.635 13.1287 67.8796 13.0854 68.0155 13.2299C68.0631 13.2805 68.0971 13.5191 68.0971 13.8082V14.2997H69.8845L69.8437 13.6781C69.7961 12.9553 69.6534 12.6011 69.3272 12.3625C68.8583 12.0373 67.8592 11.8638 67.1592 11.9939Z" fill="#151515"/>
<path d="M18.6893 19.3668L20.5107 19.3451C22.1825 19.3235 22.3456 19.309 22.5563 19.1789C23.0253 18.8825 23.0728 18.7452 23.0932 17.5525C23.1272 16.0418 23.0388 15.8466 22.1214 15.4924C22.0126 15.449 22.0398 15.4201 22.2913 15.3406C22.468 15.29 22.6787 15.1599 22.767 15.0515C22.9233 14.878 22.9369 14.8129 22.9369 14.0612C22.9369 13.36 22.9165 13.2083 22.7806 12.948C22.6039 12.5866 22.2437 12.3119 21.8155 12.2107C21.6456 12.1674 20.8777 12.1312 20.1029 12.1312H18.6893V19.3668ZM21.1359 13.4757C21.2107 13.5552 21.2379 13.7359 21.2379 14.1479C21.2311 14.8057 21.1563 14.9503 20.8233 14.9503H20.5922V13.2661L20.8097 13.3167C20.9321 13.3456 21.0816 13.4106 21.1359 13.4757ZM21.1427 16.2297C21.2107 16.3092 21.2379 16.5694 21.2379 17.126C21.2379 17.9934 21.2039 18.0802 20.8165 18.1669L20.5922 18.2175V16.1068H20.8233C20.9524 16.1068 21.0884 16.1574 21.1427 16.2297Z" fill="#151515"/>
<path d="M25.2272 15.1165L25.2544 18.1019L25.4175 18.456C25.7505 19.1717 26.4233 19.5042 27.4971 19.5042C28.2719 19.5042 28.7408 19.3379 29.101 18.9476C29.6107 18.3765 29.5903 18.5139 29.6175 15.1455L29.6447 12.1312H27.735L27.7146 15.1671C27.6942 18.3259 27.6942 18.3476 27.4223 18.3476C27.1505 18.3476 27.1505 18.3259 27.1301 15.1671L27.1097 12.1312H25.1932L25.2272 15.1165Z" fill="#151515"/>
<path d="M31.8058 19.3596H33.7087V16.0996L33.9262 16.1213C34.2864 16.1574 34.3204 16.3165 34.3204 17.9284V19.3596H36.1078L36.0738 17.885C36.033 16.0779 35.9922 15.9695 35.2379 15.6659L35.034 15.5792L35.2922 15.5213C35.8835 15.3768 36.0466 15.0732 36.0466 14.0829C36.0466 13.1287 35.8359 12.6228 35.3194 12.3264C35.0544 12.1746 34.932 12.1674 33.4233 12.1457L31.8058 12.1168V19.3596ZM34.035 13.3673C34.2864 13.4612 34.3544 13.6998 34.3068 14.3792C34.2728 14.8491 34.2049 14.9503 33.899 14.9503H33.7087V14.119C33.7087 13.6636 33.7359 13.2878 33.7699 13.2878C33.7971 13.2878 33.9194 13.3239 34.035 13.3673Z" fill="#151515"/>
<path d="M44.8544 19.3596H48.1165V17.9934L46.7233 17.9501L46.6825 16.3237H47.9126V14.9503H46.6825L46.7233 13.5408L47.9806 13.4974V12.1312H44.8544V19.3596Z" fill="#151515"/>
<path d="M50.1553 19.3596H51.9903V16.1068H52.1806C52.2893 16.1068 52.432 16.1502 52.5068 16.208C52.6291 16.302 52.6359 16.4249 52.6631 17.8344L52.6835 19.3596H54.3689V17.885C54.3689 16.4827 54.3621 16.4032 54.2194 16.1719C54.1243 16.0273 53.9136 15.8466 53.7029 15.7382L53.3359 15.5502L53.601 15.5069C54.1787 15.4057 54.3689 15.0587 54.3689 14.1046C54.3689 13.3239 54.2874 12.9986 54.0155 12.6661C53.6146 12.1818 53.5602 12.1674 51.7728 12.1457L50.1553 12.1168V19.3596ZM52.534 13.4757C52.6087 13.5552 52.6359 13.7431 52.6359 14.1479C52.6359 14.8057 52.5612 14.9503 52.2214 14.9503H51.9903V14.1696C51.9903 13.7359 52.0107 13.36 52.0379 13.3311C52.1058 13.2588 52.4117 13.3456 52.534 13.4757Z" fill="#151515"/>
<path d="M62.5922 12.8179C62.5922 13.5046 62.5922 13.5046 62.7621 13.5046C62.8573 13.5046 62.932 13.5335 62.932 13.5624C62.932 13.5986 62.8573 13.6998 62.7621 13.7937C62.6466 13.9094 62.5922 14.0395 62.5922 14.1985V14.4371L62.8845 14.3286C63.5029 14.1046 63.7612 13.6709 63.802 12.7601L63.8291 12.1312H62.5922V12.8179Z" fill="#151515"/>
<path d="M0.339806 0.0813754C0.251456 0.131974 0.135922 0.254856 0.0883495 0.348825C0.0203884 0.493393 0 2.53902 0 9.9481C0 18.5137 0.00679611 19.3956 0.108738 19.6197C0.169903 19.757 0.278641 19.9016 0.346602 19.9449C0.434951 19.9883 2.21553 20.01 5.45728 19.9955L10.432 19.9739L10.9214 19.7787C12.6883 19.0848 13.9117 17.7114 14.3806 15.8898C14.5709 15.167 14.5573 13.7141 14.3534 12.9623C14.1019 12.0516 13.6398 11.1842 13.035 10.5119C12.7427 10.1866 12.5049 9.89028 12.5049 9.84691C12.5049 9.81076 12.6748 9.6156 12.8786 9.42766C13.6126 8.75542 14.2175 7.61334 14.4417 6.49294C14.9311 4.00638 13.667 1.46199 11.4515 0.471708C10.4252 0.00909171 10.7447 0.0307768 5.40291 0.00909168C1.52913 -0.0125934 0.475728 0.00186331 0.339806 0.0813754ZM9.19515 2.62576C9.57573 2.87876 9.82039 3.24017 9.92913 3.71725C10.0243 4.11481 9.95631 4.38226 9.6301 4.9027C9.35146 5.35086 6.15728 8.71205 5.85146 8.87108C5.48447 9.07347 5.0767 9.12407 4.67573 9.01564C4.39709 8.95059 4.24757 8.84939 3.96893 8.56026C3.42524 7.97476 3.3301 7.28083 3.70388 6.60137C3.86019 6.31946 6.80971 3.22572 7.38058 2.74864C7.74078 2.44505 7.95825 2.37277 8.46796 2.39445C8.78738 2.40891 8.95049 2.45951 9.19515 2.62576ZM8.82136 10.8661C9.51456 11.0902 9.94951 11.6974 9.95631 12.4563C9.95631 12.7961 9.92233 12.9551 9.78641 13.1864C9.55534 13.5984 6.22524 17.0464 5.82427 17.2921C5.53884 17.4728 5.45049 17.4945 5.03592 17.4656C4.43786 17.4295 4.00291 17.162 3.70388 16.656C3.44563 16.2006 3.42524 15.5862 3.65631 15.1236C3.81262 14.7983 7.14951 11.2926 7.53689 11.0396C7.74078 10.9095 8.12136 10.7794 8.36602 10.7649C8.42039 10.7577 8.63107 10.8083 8.82136 10.8661Z" fill="#B02B2B"/>
</svg>
