<svg width="360" height="358" viewBox="0 0 360 358" fill="none" xmlns="http://www.w3.org/2000/svg">
<path d="M162.386 45.4802C162.386 50.4727 162.204 59.6054 161.961 65.6329L161.596 76.7139H167.063H172.529L172.954 57.17C173.197 46.3935 173.258 37.5043 173.197 37.4435C173.076 37.3217 170.646 37.0782 167.731 36.8346L162.386 36.4084V45.4802Z" fill="#B02B2B"/>
<path d="M129.891 41.3405C122.116 43.167 119.869 43.8368 119.869 44.3847C119.869 45.298 128.919 81.7068 129.223 82.0112C129.709 82.5592 138.819 80.1238 139.123 79.3932C139.305 78.8453 137.24 69.5908 135.904 64.9636C135.661 64.2939 135.904 63.9286 136.511 63.9286C138.516 63.9286 143.314 61.9194 145.015 60.3973C146.594 58.8752 146.715 58.5099 146.412 55.1004C145.926 49.9252 143.861 43.715 142.099 42.0102C140.034 40.1228 136.086 39.9402 129.891 41.3405ZM135.965 49.5599C136.451 50.7167 136.997 52.7259 137.24 54.0653C137.544 56.1354 137.422 56.6225 136.39 57.1704C135.722 57.5357 134.871 57.8402 134.568 57.8402C134.082 57.8402 132.017 49.9861 132.017 48.2204C132.017 47.8551 132.685 47.4898 133.596 47.4898C134.75 47.4898 135.297 47.9769 135.965 49.5599Z" fill="#B02B2B"/>
<path d="M215.289 45.8459C214.985 46.5765 211.462 54.6741 207.393 63.8677C203.323 73.0612 200.104 80.6717 200.226 80.7326C200.59 81.0979 210.187 85.4207 214.499 87.1255C219.966 89.3173 222.092 89.3782 224.096 87.369C226.039 85.4207 229.198 78.6626 229.623 75.6183C229.866 73.6092 229.684 72.9394 227.983 71.052L226.039 68.7993H228.833C231.384 68.7993 231.749 68.6166 233.085 66.4857C236.365 61.4932 236.426 56.0745 233.267 53.0911C232.538 52.3605 228.773 50.3513 224.946 48.5248C215.532 44.1411 215.896 44.202 215.289 45.8459ZM225.979 56.9877C226.161 57.4748 225.675 59.1187 224.885 60.7017C223.61 63.1979 223.185 63.6241 221.606 63.6241C219.419 63.6241 219.419 63.0762 221.666 58.2054C223.063 55.1612 223.367 54.8568 224.4 55.4656C225.068 55.8309 225.797 56.5007 225.979 56.9877ZM219.176 70.017C220.269 71.2347 220.269 71.3564 218.508 75.3748C216.868 79.1496 216.564 79.4541 214.681 79.6367C212.799 79.8194 212.677 79.7585 212.981 78.419C213.588 75.9837 217.05 68.7993 217.597 68.7993C217.84 68.7993 218.569 69.3473 219.176 70.017Z" fill="#B02B2B"/>
<path d="M88.8926 58.4489C85.7342 60.4581 82.8795 62.1629 82.5758 62.2846C82.1507 62.4064 96.8493 98.2673 97.6996 99.1197C98.0641 99.485 107.114 94.188 107.114 93.5792C107.114 93.3356 106.446 91.8135 105.656 90.1697L104.138 87.2472L106.082 86.1513C107.964 85.0554 107.964 85.0554 108.875 86.5166C109.422 87.3081 110.394 88.5867 111.062 89.3782L112.338 90.8394L116.711 88.2214C119.14 86.7601 121.084 85.3598 121.084 85.0554C121.084 84.203 96.0597 54.7958 95.3309 54.8567C94.9664 54.8567 92.051 56.5006 88.8926 58.4489ZM99.3396 72.9394L104.077 79.3931L102.376 80.489L100.737 81.585L98.4892 76.8969C95.2701 70.1387 93.7517 66.3639 94.2376 66.4248C94.4805 66.4248 96.7886 69.3472 99.3396 72.9394Z" fill="#B02B2B"/>
<path d="M251.003 74.705C234.664 92.9094 234.3 93.5182 235.818 98.7543C236.729 101.677 241.285 106.791 244.504 108.435C247.237 109.835 251.064 109.957 253.493 108.678C254.465 108.191 260.114 102.407 266.005 95.7709L276.817 83.7767L272.929 80.2454C270.743 78.2971 268.86 76.775 268.617 76.8359C268.435 76.9577 263.454 82.4373 257.502 89.0128C247.116 100.642 245.051 102.407 244.14 100.155C243.775 99.1196 244.14 98.6934 255.558 85.8468C259.931 80.976 264.001 76.4097 264.669 75.6182L265.884 74.2788L264.062 72.3914C263.09 71.3563 261.328 69.7124 260.114 68.7383L257.927 67.0335L251.003 74.705Z" fill="#B02B2B"/>
<path d="M184.069 70.869C183.826 71.417 183.523 73.1826 183.28 74.7656L182.915 77.749L186.56 78.3578L190.265 78.9058L190.933 75.9833C191.844 71.7214 191.722 71.3561 189.718 70.9908C188.746 70.8081 187.106 70.5037 186.135 70.2602C184.92 70.0775 184.312 70.1993 184.069 70.869Z" fill="#B02B2B"/>
<path d="M61.1959 80.9151C59.0701 82.1936 49.1697 92.2396 48.9268 93.3964C48.8053 94.0052 76.7449 120.551 77.5345 120.551C77.656 120.551 79.2959 118.785 81.1788 116.654L84.6409 112.758L80.8144 109.105C78.7493 107.156 76.0768 104.66 74.9228 103.625L72.7969 101.738L74.6798 99.7283C77.7167 96.5015 78.5671 94.8576 78.5671 92.4222C78.5671 90.5348 78.0811 89.5606 76.016 87.247C74.5583 85.7249 72.0681 83.4113 70.4889 82.0719C67.0875 79.393 64.2328 79.0277 61.1959 80.9151ZM67.1483 91.2654C69.76 93.8834 70.0637 94.4314 69.4563 95.5273C68.4845 97.4147 67.5734 97.1103 64.0506 93.5181C61.2567 90.6566 60.8922 90.0477 61.5603 89.2562C62.8358 87.6732 63.9899 88.0994 67.1483 91.2654Z" fill="#B02B2B"/>
<path d="M274.144 111.175C265.277 116.35 257.806 120.855 257.502 121.16C257.198 121.464 258.109 123.595 259.628 126.213L262.24 130.718L268.799 126.883C278.396 121.281 277.606 121.586 278.396 123.047C279.368 124.813 278.457 125.665 270.864 129.988C267.342 131.997 264.426 133.823 264.426 134.006C264.426 134.25 265.459 136.259 266.734 138.451C268.131 141.008 269.285 142.347 269.771 142.165C270.257 141.982 273.415 140.155 276.878 138.085C283.559 134.128 284.834 132.606 284.348 129.135L284.105 127.309L285.867 128.831C287.871 130.536 289.025 130.475 293.277 128.466C296.921 126.7 299.715 123.595 300.08 120.733C300.323 118.724 299.897 117.446 297.407 112.636C293.884 105.817 291.333 101.677 290.665 101.677C290.422 101.737 283.012 105.999 274.144 111.175ZM291.394 117.385C291.03 117.994 289.511 119.089 287.993 119.942C285.624 121.16 285.077 121.281 284.227 120.612C282.587 119.272 283.073 118.481 287.082 116.167C290.726 114.036 290.847 113.975 291.394 115.193C291.758 115.984 291.758 116.776 291.394 117.385Z" fill="#B02B2B"/>
<path d="M117.075 129.744C115.982 131.023 115.921 132.667 115.739 192.334C115.678 226.003 115.739 254.497 115.921 255.653C116.164 256.749 116.954 258.332 117.743 259.124L119.201 260.585H151.878C188.321 260.585 189.414 260.463 197.493 256.567C203.202 253.827 210.308 246.947 213.284 241.285C220.816 226.977 218.265 209.259 206.846 197.387L203.08 193.43L207.211 189.107C214.621 181.435 218.083 172.242 217.475 161.77C216.625 147.401 208.182 136.076 194.152 130.414L190.022 128.77L154.125 128.588L118.29 128.405L117.075 129.744ZM179.21 144.966C182.976 146.792 184.98 149.715 185.345 153.794C185.588 156.899 185.466 157.386 183.401 160.369C180.304 164.936 158.681 186.123 156.069 187.219C148.598 190.385 140.459 185.149 140.338 177.173C140.277 175.286 140.763 173.642 141.735 171.998C143.8 168.467 167.002 146.122 169.978 144.783C173.197 143.383 175.991 143.383 179.21 144.966ZM179.939 200.979C183.644 203.049 186.499 208.407 185.649 211.817C184.798 215.47 182.49 218.27 171.132 229.23C156.494 243.416 156.069 243.72 151.939 243.72C142.828 243.842 137.301 234.831 141.796 227.342C143.314 224.846 166.941 202.014 169.371 200.736C171.982 199.335 177.206 199.396 179.939 200.979Z" fill="#B02B2B"/>
<path d="M292.062 147.705C278.214 150.749 275.055 152.576 274.326 158.177C273.719 162.805 275.48 167.066 278.457 168.162C279.125 168.467 279.064 168.649 278.153 169.38C277.181 170.111 277.12 170.72 277.485 173.398C277.788 175.712 278.153 176.564 278.882 176.564C279.975 176.564 298.014 172.79 298.379 172.485C298.804 172.181 296.435 160.735 295.888 160.369C295.646 160.187 294.309 160.369 292.973 160.735C291.212 161.222 290.544 161.709 290.665 162.439C290.908 163.901 283.194 165.605 281.736 164.388C280.461 163.353 280.582 162.135 282.04 161.343C283.68 160.43 305.667 155.742 307.186 155.986C308.097 156.107 308.461 156.594 308.461 157.69C308.461 159.03 308.097 159.273 304.817 160.065C302.813 160.552 301.112 160.978 300.99 161.039C300.869 161.161 301.233 163.596 301.841 166.458C302.995 172.424 302.63 172.242 309.312 169.624C312.106 168.589 312.895 167.919 314.11 165.605C315.325 163.292 315.507 162.257 315.264 158.604C315.021 153.794 313.563 150.506 310.648 147.705C307.854 145.026 304.088 145.026 292.062 147.705Z" fill="#B02B2B"/>
<path d="M278.153 190.69C277.971 192.455 277.667 196.717 277.424 200.066L277.06 206.215L280.522 206.702C282.405 206.885 284.105 207.007 284.227 206.885C284.348 206.702 284.652 204.876 284.834 202.806L285.259 199.031L289.572 199.213L293.884 199.396V202.866V206.276L297.103 206.702C298.925 206.946 300.505 206.946 300.687 206.763C300.869 206.58 301.173 205.058 301.355 203.354L301.659 200.309H305.607H309.555L309.251 204.206L308.887 208.103L312.652 208.346C314.657 208.468 316.418 208.59 316.418 208.529C316.722 208.468 317.815 190.933 317.572 190.69C317.329 190.385 284.166 187.645 279.854 187.585C278.7 187.524 278.517 187.95 278.153 190.69Z" fill="#B02B2B"/>
<path d="M274.691 217.235C272.14 223.81 271.654 225.454 272.079 225.82C272.383 226.124 275.784 227.464 279.671 228.864C288.539 232.152 288.418 232.091 287.507 233.735C286.656 235.378 285.745 235.257 277.06 231.908C273.658 230.629 270.621 229.534 270.439 229.534C269.71 229.534 266.795 238.24 267.281 238.727C267.585 239.032 270.925 240.371 274.752 241.71C282.648 244.572 284.834 244.572 286.839 241.832L288.053 240.188L288.114 243.05C288.114 245.79 288.236 245.972 290.726 247.494C292.184 248.347 294.917 249.321 296.739 249.686C303.177 250.965 305.546 248.347 310.527 234.587L312.349 229.594L308.279 228.072C306.032 227.22 297.711 224.054 289.754 221.071L275.298 215.652L274.691 217.235ZM297.954 235.744C301.841 237.144 302.934 238.362 301.234 239.64C300.14 240.432 298.075 240.067 295.342 238.666C293.459 237.631 293.034 236.961 293.398 235.561C293.763 234.161 293.641 234.1 297.954 235.744Z" fill="#B02B2B"/>
<path d="M257.684 252.609C253.129 255.653 249.849 261.194 249.849 265.821C249.849 268.439 250.092 268.926 252.582 271.301C256.712 275.319 259.688 276.597 263.758 276.232C265.641 276.11 268.921 275.258 271.047 274.345C273.233 273.492 275.723 272.762 276.574 272.762C278.821 272.762 281.554 275.014 281.311 276.658C281.068 278.424 279.368 278.607 277.181 277.024C276.209 276.293 275.116 275.867 274.873 276.05C274.083 276.537 269.285 282.808 269.285 283.356C269.285 283.538 270.561 284.573 272.14 285.547C276.877 288.592 280.157 287.922 284.834 282.99C292.366 275.197 291.394 268.135 282.222 263.386C279.428 261.985 276.877 262.168 270.925 264.238C264.426 266.491 262.665 266.552 260.235 264.481C256.226 261.072 259.02 257.723 263.09 261.011C264.365 261.985 265.641 262.959 266.005 263.203C266.37 263.386 268.01 261.863 269.771 259.733L272.869 255.836L270.925 254.314C265.641 250.295 261.936 249.808 257.684 252.609Z" fill="#B02B2B"/>
<path d="M217.475 286.4C212.495 288.226 208.304 292.123 207.575 295.715C207.028 298.333 209.519 304.117 212.434 307.161C214.621 309.414 215.41 309.84 218.933 310.449C221.12 310.814 224.035 311.119 225.432 311.119C228.773 311.119 230.777 312.154 231.627 314.224C233.328 318.242 230.291 320.13 228.287 316.294C227.619 315.137 226.89 314.163 226.647 314.163C225.554 314.163 218.265 318.121 218.265 318.729C218.265 319.582 221.302 324.026 222.456 324.94C225.189 326.949 230.838 326.157 235.94 323.113C241.71 319.643 243.228 315.442 240.799 309.779C238.369 304.117 235.636 302.473 227.072 301.682C221.12 301.134 219.723 300.525 218.204 297.359C217.172 295.106 217.05 294.497 217.718 293.706C219.115 292.001 220.877 292.975 222.699 296.324L224.4 299.551L228.651 297.42C230.959 296.202 232.842 294.924 232.842 294.497C232.842 293.219 229.502 288.348 227.679 286.887C225.675 285.304 221.18 285.121 217.475 286.4Z" fill="#B02B2B"/>
<path d="M255.68 295.167C253.918 298.577 254.404 301.256 257.623 305.457L259.081 307.466L260.721 306.248C265.033 303.021 264.851 303.569 262.361 300.464C261.025 298.881 259.628 297.785 259.081 297.846C258.352 297.968 258.049 297.542 257.988 296.324C257.866 293.584 256.773 293.036 255.68 295.167Z" fill="#B02B2B"/>
</svg>
