<svg width="360" height="800" viewBox="0 0 360 800" fill="none" xmlns="http://www.w3.org/2000/svg">
<path d="M181.519 327.607C182.382 328.345 183.492 328.387 223.775 328.51C246.507 328.551 265.745 328.51 266.526 328.387C267.265 328.222 268.334 327.689 268.869 327.156L269.855 326.172L269.855 304.11C269.855 279.506 269.773 278.768 267.142 273.314C265.292 269.459 260.647 264.661 256.825 262.652C247.165 257.567 235.203 259.289 227.187 266.999L224.515 269.541L221.597 266.753C216.417 261.75 210.21 259.412 203.14 259.822C193.439 260.396 185.794 266.097 181.971 275.569L180.861 278.358L180.738 302.593L180.614 326.787L181.519 327.607ZM191.795 285.657C193.028 283.115 195.001 281.761 197.755 281.515C199.852 281.351 200.181 281.433 202.195 282.827C205.278 284.919 219.583 299.517 220.323 301.281C222.46 306.325 218.925 311.82 213.54 311.902C212.266 311.943 211.156 311.615 210.046 310.958C207.662 309.564 192.576 293.899 191.672 291.89C190.726 289.717 190.726 287.83 191.795 285.657ZM229.612 285.165C231.01 282.663 234.627 280.736 236.929 281.31C239.396 281.884 241.287 283.443 248.686 291.111C258.263 300.994 258.469 301.281 258.469 304.069C258.551 310.22 252.467 313.952 247.411 310.917C245.726 309.892 230.311 293.94 229.448 292.3C228.503 290.537 228.544 287.01 229.612 285.165Z" fill="#222222"/>
<path d="M181.519 107.509C182.382 108.247 183.492 108.288 223.775 108.411C246.507 108.452 265.745 108.411 266.526 108.288C267.265 108.124 268.334 107.591 268.869 107.058L269.855 106.074L269.855 84.0121C269.855 59.4077 269.773 58.6696 267.142 53.2156C265.292 49.3609 260.647 44.5631 256.825 42.5537C247.165 37.4688 235.203 39.1911 227.187 46.9005L224.515 49.443L221.597 46.6545C216.417 41.6516 210.21 39.3142 203.14 39.7242C193.439 40.2983 185.794 45.9984 181.971 55.471L180.861 58.2595L180.738 82.4948L180.614 106.689L181.519 107.509ZM191.795 65.5588C193.028 63.0164 195.001 61.6631 197.755 61.4171C199.852 61.2531 200.181 61.3351 202.195 62.7293C205.278 64.8207 219.583 79.4193 220.323 81.1826C222.46 86.2265 218.925 91.7214 213.54 91.8034C212.266 91.8445 211.156 91.5164 210.046 90.8603C207.662 89.466 192.576 73.8013 191.672 71.7919C190.726 69.6185 190.726 67.7322 191.795 65.5588ZM229.612 65.0667C231.01 62.5653 234.627 60.6379 236.929 61.212C239.396 61.7861 241.287 63.3444 248.686 71.0128C258.263 80.8955 258.469 81.1826 258.469 83.9711C258.551 90.1221 252.467 93.8538 247.411 90.8193C245.726 89.7941 230.311 73.8423 229.448 72.202C228.503 70.4387 228.544 66.912 229.612 65.0667Z" fill="#222222"/>
<path d="M181.519 331.566C182.382 330.828 183.492 330.787 223.775 330.664C246.507 330.623 265.745 330.664 266.526 330.787C267.265 330.951 268.334 331.484 268.869 332.018L269.855 333.002L269.855 355.064C269.855 379.668 269.773 380.406 267.142 385.86C265.292 389.715 260.647 394.513 256.825 396.522C247.165 401.607 235.203 399.885 227.187 392.175L224.515 389.633L221.597 392.421C216.417 397.424 210.21 399.762 203.14 399.351C193.439 398.777 185.794 393.077 181.971 383.605L180.861 380.816L180.738 356.581L180.614 332.387L181.519 331.566ZM191.795 373.517C193.028 376.059 195.001 377.413 197.755 377.659C199.852 377.823 200.181 377.741 202.195 376.346C205.278 374.255 219.583 359.656 220.323 357.893C222.46 352.849 218.925 347.354 213.54 347.272C212.266 347.231 211.156 347.559 210.046 348.215C207.662 349.61 192.576 365.274 191.672 367.284C190.726 369.457 190.726 371.343 191.795 373.517ZM229.612 374.009C231.01 376.51 234.627 378.438 236.929 377.864C239.396 377.29 241.287 375.731 248.686 368.063C258.263 358.18 258.469 357.893 258.469 355.105C258.551 348.954 252.467 345.222 247.411 348.256C245.726 349.282 230.311 365.233 229.448 366.874C228.503 368.637 228.544 372.164 229.612 374.009Z" fill="#222222"/>
<path d="M181.519 111.469C182.382 110.731 183.492 110.69 223.775 110.567C246.507 110.526 265.745 110.567 266.526 110.69C267.265 110.854 268.334 111.387 268.869 111.92L269.855 112.904L269.855 134.966C269.855 159.57 269.773 160.308 267.142 165.762C265.292 169.617 260.647 174.415 256.825 176.424C247.165 181.509 235.203 179.787 227.187 172.078L224.515 169.535L221.597 172.324C216.417 177.326 210.21 179.664 203.14 179.254C193.439 178.68 185.794 172.98 181.971 163.507L180.861 160.719L180.738 136.483L180.614 112.289L181.519 111.469ZM191.795 153.419C193.028 155.962 195.001 157.315 197.755 157.561C199.852 157.725 200.181 157.643 202.195 156.249C205.278 154.157 219.583 139.559 220.323 137.795C222.46 132.752 218.925 127.257 213.54 127.175C212.266 127.134 211.156 127.462 210.046 128.118C207.662 129.512 192.576 145.177 191.672 147.186C190.726 149.36 190.726 151.246 191.795 153.419ZM229.612 153.911C231.01 156.413 234.627 158.34 236.929 157.766C239.396 157.192 241.287 155.634 248.686 147.965C258.263 138.083 258.469 137.795 258.469 135.007C258.551 128.856 252.467 125.124 247.411 128.159C245.726 129.184 230.311 145.136 229.448 146.776C228.503 148.539 228.544 152.066 229.612 153.911Z" fill="#222222"/>
<path d="M181.398 182.116C180.768 182.854 180.732 183.803 180.627 218.241C180.592 237.674 180.627 254.12 180.732 254.788C180.873 255.42 181.328 256.334 181.783 256.791L182.624 257.634H201.469C222.485 257.634 223.115 257.564 227.774 255.315C231.066 253.734 235.165 249.763 236.881 246.495C241.224 238.236 239.753 228.01 233.168 221.158L230.996 218.874L233.378 216.378C237.652 211.951 239.648 206.644 239.298 200.6C238.807 192.307 233.939 185.77 225.847 182.502L223.466 181.554L202.765 181.448L182.099 181.343L181.398 182.116ZM217.231 190.901C219.402 191.955 220.558 193.642 220.768 195.997C220.909 197.789 220.839 198.07 219.648 199.792C217.861 202.427 205.392 214.657 203.885 215.289C199.577 217.116 194.883 214.094 194.813 209.491C194.778 208.401 195.059 207.453 195.619 206.504C196.81 204.466 210.19 191.569 211.907 190.796C213.763 189.987 215.374 189.987 217.231 190.901ZM217.651 223.231C219.788 224.426 221.434 227.518 220.944 229.486C220.453 231.595 219.122 233.211 212.572 239.537C204.131 247.724 203.885 247.9 201.504 247.9C196.249 247.97 193.062 242.77 195.654 238.447C196.53 237.006 210.155 223.828 211.556 223.09C213.062 222.282 216.075 222.317 217.651 223.231Z" fill="#222222"/>
<path d="M181.398 -37.9824C180.768 -37.2444 180.732 -36.2956 180.627 -1.85718C180.592 17.5759 180.627 34.022 180.732 34.6897C180.873 35.3222 181.328 36.2359 181.783 36.6927L182.624 37.5361H201.469C222.485 37.5361 223.115 37.4659 227.774 35.2168C231.066 33.6355 235.165 29.6645 236.881 26.3964C241.224 18.1382 239.753 7.91208 233.168 1.05954L230.996 -1.22464L233.378 -3.71967C237.652 -8.14746 239.648 -13.4538 239.298 -19.4981C238.807 -27.7914 233.939 -34.3277 225.847 -37.5958L223.466 -38.5446L202.765 -38.65L182.099 -38.7555L181.398 -37.9824ZM217.231 -29.1971C219.402 -28.1428 220.558 -26.456 220.768 -24.1016C220.909 -22.3094 220.839 -22.0282 219.648 -20.3063C217.861 -17.6707 205.392 -5.44159 203.885 -4.80904C199.577 -2.9817 194.883 -6.00385 194.813 -10.6073C194.778 -11.6967 195.059 -12.6455 195.619 -13.5944C196.81 -15.6325 210.19 -28.5294 211.907 -29.3025C213.763 -30.1107 215.374 -30.1107 217.231 -29.1971ZM217.651 3.13287C219.788 4.32767 221.434 7.4201 220.944 9.38801C220.453 11.4965 219.122 13.113 212.572 19.4384C204.131 27.6263 203.885 27.802 201.504 27.802C196.249 27.8723 193.062 22.6714 195.654 18.349C196.53 16.9082 210.155 3.73027 211.556 2.99231C213.062 2.18406 216.075 2.2192 217.651 3.13287Z" fill="#222222"/>
<path d="M299.332 182.116C299.962 182.854 299.997 183.803 300.102 218.241C300.137 237.674 300.102 254.12 299.997 254.788C299.857 255.42 299.402 256.334 298.946 256.791L298.106 257.634L279.261 257.634C258.245 257.634 257.614 257.564 252.956 255.315C249.663 253.734 245.565 249.763 243.849 246.495C239.505 238.236 240.976 228.01 247.562 221.158L249.733 218.874L247.351 216.378C243.078 211.951 241.082 206.644 241.432 200.6C241.922 192.307 246.791 185.77 254.882 182.502L257.264 181.554L277.965 181.448L298.631 181.343L299.332 182.116ZM263.499 190.901C261.327 191.955 260.171 193.642 259.961 195.997C259.821 197.789 259.891 198.07 261.082 199.792C262.868 202.427 275.338 214.657 276.844 215.289C281.153 217.116 285.846 214.094 285.916 209.491C285.951 208.401 285.671 207.453 285.111 206.504C283.92 204.466 270.539 191.569 268.823 190.796C266.967 189.987 265.355 189.987 263.499 190.901ZM263.079 223.231C260.942 224.426 259.296 227.518 259.786 229.486C260.276 231.595 261.607 233.211 268.158 239.537C276.599 247.724 276.844 247.9 279.226 247.9C284.48 247.97 287.668 242.77 285.076 238.447C284.2 237.006 270.574 223.828 269.173 223.09C267.667 222.282 264.655 222.317 263.079 223.231Z" fill="#222222"/>
<path d="M299.331 -37.9824C299.962 -37.2444 299.997 -36.2956 300.102 -1.85718C300.137 17.5759 300.102 34.022 299.997 34.6897C299.857 35.3222 299.402 36.2359 298.946 36.6927L298.106 37.5361L279.261 37.5361C258.245 37.5361 257.614 37.4659 252.956 35.2168C249.663 33.6355 245.565 29.6645 243.849 26.3964C239.505 18.1382 240.976 7.91208 247.561 1.05954L249.733 -1.22464L247.351 -3.71966C243.078 -8.14746 241.081 -13.4538 241.432 -19.4981C241.922 -27.7914 246.791 -34.3277 254.882 -37.5958L257.264 -38.5446L277.965 -38.65L298.631 -38.7555L299.331 -37.9824ZM263.499 -29.197C261.327 -28.1428 260.171 -26.456 259.961 -24.1016C259.821 -22.3094 259.891 -22.0282 261.082 -20.3063C262.868 -17.6707 275.338 -5.44158 276.844 -4.80904C281.152 -2.9817 285.846 -6.00384 285.916 -10.6073C285.951 -11.6967 285.671 -12.6455 285.11 -13.5944C283.92 -15.6325 270.539 -28.5294 268.823 -29.3025C266.966 -30.1107 265.355 -30.1107 263.499 -29.197ZM263.078 3.13288C260.942 4.32768 259.296 7.42011 259.786 9.38801C260.276 11.4965 261.607 13.113 268.157 19.4384C276.599 27.6263 276.844 27.802 279.226 27.802C284.48 27.8723 287.667 22.6714 285.075 18.349C284.2 16.9082 270.574 3.73028 269.173 2.99231C267.667 2.18406 264.655 2.2192 263.078 3.13288Z" fill="#222222"/>
<path d="M302.924 182.116C302.294 182.854 302.259 183.803 302.154 218.241C302.119 237.674 302.154 254.12 302.259 254.788C302.399 255.42 302.854 256.334 303.31 256.791L304.15 257.634H322.995C344.011 257.634 344.642 257.564 349.3 255.315C352.593 253.734 356.691 249.763 358.407 246.495C362.751 238.236 361.28 228.01 354.695 221.158L352.523 218.874L354.905 216.378C359.178 211.951 361.175 206.644 360.824 200.6C360.334 192.307 355.465 185.77 347.374 182.502L344.992 181.554L324.291 181.448L303.625 181.343L302.924 182.116ZM338.757 190.901C340.929 191.955 342.085 193.642 342.295 195.997C342.435 197.789 342.365 198.07 341.174 199.792C339.388 202.427 326.918 214.657 325.412 215.289C321.104 217.116 316.41 214.094 316.34 209.491C316.305 208.401 316.585 207.453 317.145 206.504C318.336 204.466 331.717 191.569 333.433 190.796C335.29 189.987 336.901 189.987 338.757 190.901ZM339.178 223.231C341.314 224.426 342.96 227.518 342.47 229.486C341.98 231.595 340.649 233.211 334.099 239.537C325.657 247.724 325.412 247.9 323.03 247.9C317.776 247.97 314.589 242.77 317.181 238.447C318.056 237.006 331.682 223.828 333.083 223.09C334.589 222.282 337.601 222.317 339.178 223.231Z" fill="#222222"/>
<path d="M302.924 -37.9824C302.294 -37.2444 302.259 -36.2956 302.154 -1.85718C302.119 17.5759 302.154 34.022 302.259 34.6897C302.399 35.3222 302.854 36.2359 303.31 36.6927L304.15 37.5361H322.995C344.011 37.5361 344.642 37.4659 349.3 35.2168C352.593 33.6355 356.691 29.6645 358.407 26.3964C362.751 18.1382 361.28 7.91208 354.695 1.05954L352.523 -1.22464L354.905 -3.71967C359.178 -8.14746 361.175 -13.4538 360.824 -19.4981C360.334 -27.7914 355.465 -34.3277 347.374 -37.5958L344.992 -38.5446L324.291 -38.65L303.625 -38.7555L302.924 -37.9824ZM338.757 -29.1971C340.929 -28.1428 342.085 -26.456 342.295 -24.1016C342.435 -22.3094 342.365 -22.0282 341.174 -20.3063C339.388 -17.6707 326.918 -5.44159 325.412 -4.80904C321.104 -2.9817 316.41 -6.00385 316.34 -10.6073C316.305 -11.6967 316.585 -12.6455 317.145 -13.5944C318.336 -15.6325 331.717 -28.5294 333.433 -29.3025C335.29 -30.1107 336.901 -30.1107 338.757 -29.1971ZM339.178 3.13287C341.314 4.32767 342.96 7.4201 342.47 9.38801C341.98 11.4965 340.649 13.113 334.099 19.4384C325.657 27.6263 325.412 27.802 323.03 27.802C317.776 27.8723 314.589 22.6714 317.181 18.349C318.056 16.9082 331.682 3.73027 333.083 2.99231C334.589 2.18406 337.601 2.2192 339.178 3.13287Z" fill="#222222"/>
<path d="M272.663 327.607C273.527 328.345 274.637 328.387 314.92 328.51C337.652 328.551 356.889 328.51 357.67 328.387C358.41 328.222 359.479 327.689 360.013 327.156L361 326.172L361 304.11C361 279.506 360.918 278.768 358.287 273.314C356.437 269.459 351.792 264.661 347.969 262.652C338.31 257.567 326.348 259.289 318.332 266.999L315.66 269.541L312.742 266.753C307.562 261.75 301.355 259.412 294.285 259.822C284.584 260.396 276.938 266.097 273.116 275.569L272.006 278.358L271.882 302.593L271.759 326.787L272.663 327.607ZM282.94 285.657C284.173 283.115 286.146 281.761 288.9 281.515C290.997 281.351 291.326 281.433 293.34 282.827C296.423 284.919 310.727 299.517 311.467 301.281C313.605 306.325 310.07 311.82 304.685 311.902C303.411 311.943 302.301 311.615 301.191 310.958C298.807 309.564 283.721 293.899 282.817 291.89C281.871 289.717 281.871 287.83 282.94 285.657ZM320.757 285.165C322.155 282.663 325.772 280.736 328.074 281.31C330.541 281.884 332.431 283.443 339.83 291.111C349.408 300.994 349.614 301.281 349.614 304.069C349.696 310.22 343.612 313.952 338.556 310.917C336.871 309.892 321.456 293.94 320.593 292.3C319.647 290.537 319.689 287.01 320.757 285.165Z" fill="#222222"/>
<path d="M272.663 107.509C273.527 108.247 274.637 108.288 314.92 108.411C337.652 108.452 356.889 108.411 357.67 108.288C358.41 108.124 359.479 107.591 360.013 107.058L361 106.074L361 84.0121C361 59.4077 360.918 58.6696 358.287 53.2156C356.437 49.3609 351.792 44.5631 347.969 42.5537C338.31 37.4688 326.348 39.1911 318.332 46.9005L315.66 49.443L312.742 46.6545C307.562 41.6516 301.355 39.3142 294.285 39.7242C284.584 40.2983 276.938 45.9984 273.116 55.471L272.006 58.2595L271.882 82.4948L271.759 106.689L272.663 107.509ZM282.94 65.5588C284.173 63.0164 286.146 61.6631 288.9 61.4171C290.997 61.2531 291.326 61.3351 293.34 62.7293C296.423 64.8207 310.727 79.4193 311.467 81.1826C313.605 86.2265 310.07 91.7214 304.685 91.8034C303.411 91.8445 302.301 91.5164 301.191 90.8603C298.807 89.466 283.721 73.8013 282.817 71.7919C281.871 69.6185 281.871 67.7322 282.94 65.5588ZM320.757 65.0667C322.155 62.5653 325.772 60.6379 328.074 61.212C330.541 61.7861 332.431 63.3444 339.83 71.0128C349.408 80.8955 349.614 81.1826 349.614 83.9711C349.696 90.1221 343.612 93.8538 338.556 90.8193C336.871 89.7941 321.456 73.8423 320.593 72.202C319.647 70.4387 319.689 66.912 320.757 65.0667Z" fill="#222222"/>
<path d="M272.663 331.566C273.527 330.828 274.637 330.787 314.92 330.664C337.652 330.623 356.889 330.664 357.67 330.787C358.41 330.951 359.479 331.484 360.013 332.018L361 333.002L361 355.064C361 379.668 360.918 380.406 358.287 385.86C356.437 389.715 351.792 394.513 347.969 396.522C338.31 401.607 326.348 399.885 318.332 392.175L315.66 389.633L312.742 392.421C307.562 397.424 301.355 399.762 294.285 399.351C284.584 398.777 276.938 393.077 273.116 383.605L272.006 380.816L271.882 356.581L271.759 332.387L272.663 331.566ZM282.94 373.517C284.173 376.059 286.146 377.413 288.9 377.659C290.997 377.823 291.326 377.741 293.34 376.346C296.423 374.255 310.728 359.656 311.467 357.893C313.605 352.849 310.07 347.354 304.685 347.272C303.411 347.231 302.301 347.559 301.191 348.215C298.807 349.61 283.721 365.274 282.817 367.284C281.871 369.457 281.871 371.343 282.94 373.517ZM320.757 374.009C322.155 376.51 325.772 378.438 328.074 377.864C330.541 377.29 332.431 375.731 339.83 368.063C349.408 358.18 349.614 357.893 349.614 355.105C349.696 348.954 343.612 345.222 338.556 348.256C336.871 349.282 321.456 365.233 320.593 366.874C319.647 368.637 319.689 372.164 320.757 374.009Z" fill="#222222"/>
<path d="M272.663 111.469C273.527 110.731 274.637 110.69 314.92 110.567C337.652 110.526 356.889 110.567 357.67 110.69C358.41 110.854 359.479 111.387 360.013 111.92L361 112.904L361 134.966C361 159.57 360.918 160.308 358.287 165.762C356.437 169.617 351.792 174.415 347.969 176.424C338.31 181.509 326.348 179.787 318.332 172.078L315.66 169.535L312.742 172.324C307.562 177.326 301.355 179.664 294.285 179.254C284.584 178.68 276.938 172.98 273.116 163.507L272.006 160.719L271.882 136.483L271.759 112.289L272.663 111.469ZM282.94 153.419C284.173 155.962 286.146 157.315 288.9 157.561C290.997 157.725 291.326 157.643 293.34 156.249C296.423 154.157 310.728 139.559 311.467 137.795C313.605 132.752 310.07 127.257 304.685 127.175C303.411 127.134 302.301 127.462 301.191 128.118C298.807 129.512 283.721 145.177 282.817 147.186C281.871 149.36 281.871 151.246 282.94 153.419ZM320.757 153.911C322.155 156.413 325.772 158.34 328.074 157.766C330.541 157.192 332.431 155.634 339.83 147.965C349.408 138.083 349.614 137.795 349.614 135.007C349.696 128.856 343.612 125.124 338.556 128.159C336.871 129.184 321.456 145.136 320.593 146.776C319.647 148.539 319.689 152.066 320.757 153.911Z" fill="#222222"/>
<path d="M181.519 767.128C182.382 767.866 183.492 767.907 223.775 768.03C246.507 768.071 265.745 768.03 266.526 767.907C267.265 767.743 268.334 767.21 268.869 766.677L269.855 765.693L269.855 743.631C269.855 719.026 269.773 718.288 267.142 712.834C265.292 708.98 260.647 704.182 256.825 702.172C247.165 697.087 235.203 698.81 227.187 706.519L224.515 709.062L221.597 706.273C216.417 701.27 210.21 698.933 203.14 699.343C193.439 699.917 185.794 705.617 181.971 715.09L180.861 717.878L180.738 742.113L180.614 766.308L181.519 767.128ZM191.795 725.177C193.028 722.635 195.001 721.282 197.755 721.036C199.852 720.872 200.181 720.954 202.195 722.348C205.278 724.439 219.583 739.038 220.323 740.801C222.46 745.845 218.925 751.34 213.54 751.422C212.266 751.463 211.156 751.135 210.046 750.479C207.662 749.085 192.576 733.42 191.672 731.411C190.726 729.237 190.726 727.351 191.795 725.177ZM229.612 724.685C231.01 722.184 234.627 720.257 236.929 720.831C239.396 721.405 241.287 722.963 248.686 730.631C258.263 740.514 258.469 740.801 258.469 743.59C258.551 749.741 252.467 753.472 247.411 750.438C245.726 749.413 230.311 733.461 229.448 731.821C228.503 730.057 228.544 726.531 229.612 724.685Z" fill="#222222"/>
<path d="M181.519 547.03C182.382 547.768 183.492 547.809 223.775 547.932C246.507 547.973 265.745 547.932 266.526 547.809C267.265 547.645 268.334 547.112 268.869 546.579L269.855 545.594L269.855 523.533C269.855 498.928 269.773 498.19 267.142 492.736C265.292 488.881 260.647 484.084 256.825 482.074C247.165 476.989 235.203 478.712 227.187 486.421L224.515 488.963L221.597 486.175C216.417 481.172 210.21 478.835 203.14 479.245C193.439 479.819 185.794 485.519 181.971 494.992L180.861 497.78L180.738 522.015L180.614 546.21L181.519 547.03ZM191.795 505.079C193.028 502.537 195.001 501.184 197.755 500.938C199.852 500.774 200.181 500.856 202.195 502.25C205.278 504.341 219.583 518.94 220.323 520.703C222.46 525.747 218.925 531.242 213.54 531.324C212.266 531.365 211.156 531.037 210.046 530.381C207.662 528.987 192.576 513.322 191.672 511.312C190.726 509.139 190.726 507.253 191.795 505.079ZM229.612 504.587C231.01 502.086 234.627 500.158 236.929 500.733C239.396 501.307 241.287 502.865 248.686 510.533C258.263 520.416 258.469 520.703 258.469 523.492C258.551 529.643 252.467 533.374 247.411 530.34C245.726 529.315 230.311 513.363 229.448 511.722C228.503 509.959 228.544 506.433 229.612 504.587Z" fill="#222222"/>
<path d="M181.519 771.087C182.382 770.349 183.492 770.308 223.775 770.185C246.507 770.144 265.745 770.185 266.526 770.308C267.265 770.472 268.334 771.005 268.869 771.538L269.855 772.522L269.855 794.584C269.855 819.188 269.773 819.927 267.142 825.381C265.292 829.235 260.647 834.033 256.825 836.042C247.165 841.127 235.203 839.405 227.187 831.696L224.515 829.153L221.597 831.942C216.417 836.945 210.21 839.282 203.14 838.872C193.439 838.298 185.794 832.598 181.971 823.125L180.861 820.337L180.738 796.101L180.614 771.907L181.519 771.087ZM191.795 813.037C193.028 815.58 195.001 816.933 197.755 817.179C199.852 817.343 200.181 817.261 202.195 815.867C205.278 813.776 219.583 799.177 220.323 797.414C222.46 792.37 218.925 786.875 213.54 786.793C212.266 786.752 211.156 787.08 210.046 787.736C207.662 789.13 192.576 804.795 191.672 806.804C190.726 808.978 190.726 810.864 191.795 813.037ZM229.612 813.529C231.01 816.031 234.627 817.958 236.929 817.384C239.396 816.81 241.287 815.252 248.686 807.583C258.263 797.701 258.469 797.414 258.469 794.625C258.551 788.474 252.467 784.742 247.411 787.777C245.726 788.802 230.311 804.754 229.448 806.394C228.503 808.158 228.544 811.684 229.612 813.529Z" fill="#222222"/>
<path d="M181.519 550.989C182.382 550.251 183.492 550.21 223.775 550.087C246.507 550.046 265.745 550.087 266.526 550.21C267.265 550.374 268.334 550.907 268.869 551.44L269.855 552.425L269.855 574.486C269.855 599.091 269.773 599.829 267.142 605.283C265.292 609.138 260.647 613.935 256.825 615.945C247.165 621.03 235.203 619.307 227.187 611.598L224.515 609.056L221.597 611.844C216.417 616.847 210.21 619.184 203.14 618.774C193.439 618.2 185.794 612.5 181.971 603.028L180.861 600.239L180.738 576.004L180.614 551.809L181.519 550.989ZM191.795 592.94C193.028 595.482 195.001 596.835 197.755 597.081C199.852 597.245 200.181 597.163 202.195 595.769C205.278 593.678 219.583 579.079 220.323 577.316C222.46 572.272 218.925 566.777 213.54 566.695C212.266 566.654 211.156 566.982 210.046 567.638C207.662 569.033 192.576 584.697 191.672 586.707C190.726 588.88 190.726 590.766 191.795 592.94ZM229.612 593.432C231.01 595.933 234.627 597.861 236.929 597.286C239.396 596.712 241.287 595.154 248.686 587.486C258.263 577.603 258.469 577.316 258.469 574.527C258.551 568.376 252.467 564.645 247.411 567.679C245.726 568.704 230.311 584.656 229.448 586.297C228.503 588.06 228.544 591.586 229.612 593.432Z" fill="#222222"/>
<path d="M181.398 621.636C180.768 622.374 180.732 623.323 180.627 657.761C180.592 677.195 180.627 693.641 180.732 694.308C180.873 694.941 181.328 695.855 181.783 696.311L182.624 697.155H201.469C222.485 697.155 223.115 697.085 227.774 694.835C231.066 693.254 235.165 689.283 236.881 686.015C241.224 677.757 239.753 667.531 233.168 660.678L230.996 658.394L233.378 655.899C237.652 651.471 239.648 646.165 239.298 640.121C238.807 631.827 233.939 625.291 225.847 622.023L223.466 621.074L202.765 620.969L182.099 620.863L181.398 621.636ZM217.231 630.422C219.402 631.476 220.558 633.163 220.768 635.517C220.909 637.309 220.839 637.59 219.648 639.312C217.861 641.948 205.392 654.177 203.885 654.81C199.577 656.637 194.883 653.615 194.813 649.011C194.778 647.922 195.059 646.973 195.619 646.024C196.81 643.986 210.19 631.089 211.907 630.316C213.763 629.508 215.374 629.508 217.231 630.422ZM217.651 662.752C219.788 663.946 221.434 667.039 220.944 669.007C220.453 671.115 219.122 672.732 212.572 679.057C204.131 687.245 203.885 687.421 201.504 687.421C196.249 687.491 193.062 682.29 195.654 677.968C196.53 676.527 210.155 663.349 211.556 662.611C213.062 661.803 216.075 661.838 217.651 662.752Z" fill="#222222"/>
<path d="M181.398 401.538C180.768 402.276 180.732 403.225 180.627 437.663C180.592 457.096 180.627 473.543 180.732 474.21C180.873 474.843 181.328 475.756 181.783 476.213L182.624 477.057H201.469C222.485 477.057 223.115 476.986 227.774 474.737C231.066 473.156 235.165 469.185 236.881 465.917C241.224 457.659 239.753 447.433 233.168 440.58L230.996 438.296L233.378 435.801C237.652 431.373 239.648 426.067 239.298 420.022C238.807 411.729 233.939 405.193 225.847 401.925L223.466 400.976L202.765 400.87L182.099 400.765L181.398 401.538ZM217.231 410.323C219.402 411.378 220.558 413.064 220.768 415.419C220.909 417.211 220.839 417.492 219.648 419.214C217.861 421.85 205.392 434.079 203.885 434.711C199.577 436.539 194.883 433.517 194.813 428.913C194.778 427.824 195.059 426.875 195.619 425.926C196.81 423.888 210.19 410.991 211.907 410.218C213.763 409.41 215.374 409.41 217.231 410.323ZM217.651 442.653C219.788 443.848 221.434 446.941 220.944 448.909C220.453 451.017 219.122 452.633 212.572 458.959C204.131 467.147 203.885 467.323 201.504 467.323C196.249 467.393 193.062 462.192 195.654 457.87C196.53 456.429 210.155 443.251 211.556 442.513C213.062 441.705 216.075 441.74 217.651 442.653Z" fill="#222222"/>
<path d="M299.332 621.636C299.962 622.374 299.997 623.323 300.102 657.761C300.137 677.195 300.102 693.641 299.997 694.308C299.857 694.941 299.402 695.855 298.946 696.311L298.106 697.155L279.261 697.155C258.245 697.155 257.614 697.085 252.956 694.835C249.663 693.254 245.565 689.283 243.849 686.015C239.505 677.757 240.976 667.531 247.562 660.678L249.733 658.394L247.351 655.899C243.078 651.471 241.082 646.165 241.432 640.121C241.922 631.827 246.791 625.291 254.882 622.023L257.264 621.074L277.965 620.969L298.631 620.863L299.332 621.636ZM263.499 630.422C261.327 631.476 260.171 633.163 259.961 635.517C259.821 637.309 259.891 637.59 261.082 639.312C262.868 641.948 275.338 654.177 276.844 654.81C281.153 656.637 285.846 653.615 285.916 649.011C285.951 647.922 285.671 646.973 285.111 646.024C283.92 643.986 270.539 631.089 268.823 630.316C266.967 629.508 265.355 629.508 263.499 630.422ZM263.079 662.752C260.942 663.946 259.296 667.039 259.786 669.007C260.276 671.115 261.607 672.732 268.158 679.057C276.599 687.245 276.844 687.421 279.226 687.421C284.48 687.491 287.668 682.29 285.076 677.968C284.2 676.527 270.574 663.349 269.173 662.611C267.667 661.803 264.655 661.838 263.079 662.752Z" fill="#222222"/>
<path d="M299.331 401.538C299.962 402.276 299.997 403.225 300.102 437.663C300.137 457.096 300.102 473.543 299.997 474.21C299.857 474.843 299.402 475.756 298.946 476.213L298.106 477.057L279.261 477.057C258.245 477.057 257.614 476.986 252.956 474.737C249.663 473.156 245.565 469.185 243.849 465.917C239.505 457.659 240.976 447.433 247.561 440.58L249.733 438.296L247.351 435.801C243.078 431.373 241.081 426.067 241.432 420.022C241.922 411.729 246.791 405.193 254.882 401.925L257.264 400.976L277.965 400.87L298.631 400.765L299.331 401.538ZM263.499 410.323C261.327 411.378 260.171 413.064 259.961 415.419C259.821 417.211 259.891 417.492 261.082 419.214C262.868 421.85 275.338 434.079 276.844 434.711C281.152 436.539 285.846 433.517 285.916 428.913C285.951 427.824 285.671 426.875 285.11 425.926C283.92 423.888 270.539 410.991 268.823 410.218C266.966 409.41 265.355 409.41 263.499 410.323ZM263.078 442.653C260.942 443.848 259.296 446.941 259.786 448.909C260.276 451.017 261.607 452.633 268.157 458.959C276.599 467.147 276.844 467.323 279.226 467.323C284.48 467.393 287.667 462.192 285.075 457.87C284.2 456.429 270.574 443.251 269.173 442.513C267.667 441.705 264.655 441.74 263.078 442.653Z" fill="#222222"/>
<path d="M302.924 621.636C302.294 622.374 302.259 623.323 302.154 657.761C302.119 677.195 302.154 693.641 302.259 694.308C302.399 694.941 302.854 695.855 303.31 696.311L304.15 697.155H322.995C344.011 697.155 344.642 697.085 349.3 694.835C352.593 693.254 356.691 689.283 358.407 686.015C362.751 677.757 361.28 667.531 354.695 660.678L352.523 658.394L354.905 655.899C359.178 651.471 361.175 646.165 360.824 640.121C360.334 631.827 355.465 625.291 347.374 622.023L344.992 621.074L324.291 620.969L303.625 620.863L302.924 621.636ZM338.757 630.422C340.929 631.476 342.085 633.163 342.295 635.517C342.435 637.309 342.365 637.59 341.174 639.312C339.388 641.948 326.918 654.177 325.412 654.81C321.104 656.637 316.41 653.615 316.34 649.011C316.305 647.922 316.585 646.973 317.145 646.024C318.336 643.986 331.717 631.089 333.433 630.316C335.29 629.508 336.901 629.508 338.757 630.422ZM339.178 662.752C341.314 663.946 342.96 667.039 342.47 669.007C341.98 671.115 340.649 672.732 334.099 679.057C325.657 687.245 325.412 687.421 323.03 687.421C317.776 687.491 314.589 682.29 317.181 677.968C318.056 676.527 331.682 663.349 333.083 662.611C334.589 661.803 337.601 661.838 339.178 662.752Z" fill="#222222"/>
<path d="M302.924 401.538C302.294 402.276 302.259 403.225 302.154 437.663C302.119 457.096 302.154 473.543 302.259 474.21C302.399 474.843 302.854 475.756 303.31 476.213L304.15 477.057H322.995C344.011 477.057 344.642 476.986 349.3 474.737C352.593 473.156 356.691 469.185 358.407 465.917C362.751 457.659 361.28 447.433 354.695 440.58L352.523 438.296L354.905 435.801C359.178 431.373 361.175 426.067 360.824 420.022C360.334 411.729 355.465 405.193 347.374 401.925L344.992 400.976L324.291 400.87L303.625 400.765L302.924 401.538ZM338.757 410.323C340.929 411.378 342.085 413.064 342.295 415.419C342.435 417.211 342.365 417.492 341.174 419.214C339.388 421.85 326.918 434.079 325.412 434.711C321.104 436.539 316.41 433.517 316.34 428.913C316.305 427.824 316.585 426.875 317.145 425.926C318.336 423.888 331.717 410.991 333.433 410.218C335.29 409.41 336.901 409.41 338.757 410.323ZM339.178 442.653C341.314 443.848 342.96 446.941 342.47 448.909C341.98 451.017 340.649 452.633 334.099 458.959C325.657 467.147 325.412 467.323 323.03 467.323C317.776 467.393 314.589 462.192 317.181 457.87C318.056 456.429 331.682 443.251 333.083 442.513C334.589 441.705 337.601 441.74 339.178 442.653Z" fill="#222222"/>
<path d="M272.663 767.128C273.527 767.866 274.637 767.907 314.92 768.03C337.652 768.071 356.889 768.03 357.67 767.907C358.41 767.743 359.479 767.21 360.013 766.677L361 765.693L361 743.631C361 719.026 360.918 718.288 358.287 712.834C356.437 708.98 351.792 704.182 347.969 702.172C338.31 697.087 326.348 698.81 318.332 706.519L315.66 709.062L312.742 706.273C307.562 701.27 301.355 698.933 294.285 699.343C284.584 699.917 276.938 705.617 273.116 715.09L272.006 717.878L271.882 742.113L271.759 766.308L272.663 767.128ZM282.94 725.177C284.173 722.635 286.146 721.282 288.9 721.036C290.997 720.872 291.326 720.954 293.34 722.348C296.423 724.439 310.727 739.038 311.467 740.801C313.605 745.845 310.07 751.34 304.685 751.422C303.411 751.463 302.301 751.135 301.191 750.479C298.807 749.085 283.721 733.42 282.817 731.411C281.871 729.237 281.871 727.351 282.94 725.177ZM320.757 724.685C322.155 722.184 325.772 720.257 328.074 720.831C330.541 721.405 332.431 722.963 339.83 730.631C349.408 740.514 349.614 740.801 349.614 743.59C349.696 749.741 343.612 753.472 338.556 750.438C336.871 749.413 321.456 733.461 320.593 731.821C319.647 730.057 319.689 726.531 320.757 724.685Z" fill="#222222"/>
<path d="M272.663 547.03C273.527 547.768 274.637 547.809 314.92 547.932C337.652 547.973 356.889 547.932 357.67 547.809C358.41 547.645 359.479 547.112 360.013 546.579L361 545.594L361 523.533C361 498.928 360.918 498.19 358.287 492.736C356.437 488.881 351.792 484.084 347.969 482.074C338.31 476.989 326.348 478.712 318.332 486.421L315.66 488.963L312.742 486.175C307.562 481.172 301.355 478.835 294.285 479.245C284.584 479.819 276.938 485.519 273.116 494.992L272.006 497.78L271.882 522.015L271.759 546.21L272.663 547.03ZM282.94 505.079C284.173 502.537 286.146 501.184 288.9 500.938C290.997 500.774 291.326 500.856 293.34 502.25C296.423 504.341 310.727 518.94 311.467 520.703C313.605 525.747 310.07 531.242 304.685 531.324C303.411 531.365 302.301 531.037 301.191 530.381C298.807 528.987 283.721 513.322 282.817 511.312C281.871 509.139 281.871 507.253 282.94 505.079ZM320.757 504.587C322.155 502.086 325.772 500.158 328.074 500.733C330.541 501.307 332.431 502.865 339.83 510.533C349.408 520.416 349.614 520.703 349.614 523.492C349.696 529.643 343.612 533.374 338.556 530.34C336.871 529.315 321.456 513.363 320.593 511.722C319.647 509.959 319.689 506.433 320.757 504.587Z" fill="#222222"/>
<path d="M272.663 771.087C273.527 770.349 274.637 770.308 314.92 770.185C337.652 770.144 356.889 770.185 357.67 770.308C358.41 770.472 359.479 771.005 360.013 771.538L361 772.522L361 794.584C361 819.188 360.918 819.927 358.287 825.381C356.437 829.235 351.792 834.033 347.969 836.042C338.31 841.127 326.348 839.405 318.332 831.696L315.66 829.153L312.742 831.942C307.562 836.945 301.355 839.282 294.285 838.872C284.584 838.298 276.938 832.598 273.116 823.125L272.006 820.337L271.882 796.101L271.759 771.907L272.663 771.087ZM282.94 813.037C284.173 815.58 286.146 816.933 288.9 817.179C290.997 817.343 291.326 817.261 293.34 815.867C296.423 813.776 310.728 799.177 311.467 797.414C313.605 792.37 310.07 786.875 304.685 786.793C303.411 786.752 302.301 787.08 301.191 787.736C298.807 789.13 283.721 804.795 282.817 806.804C281.871 808.978 281.871 810.864 282.94 813.037ZM320.757 813.529C322.155 816.031 325.772 817.958 328.074 817.384C330.541 816.81 332.431 815.252 339.83 807.583C349.408 797.701 349.614 797.414 349.614 794.625C349.696 788.474 343.612 784.742 338.556 787.777C336.871 788.802 321.456 804.754 320.593 806.394C319.647 808.158 319.689 811.684 320.757 813.529Z" fill="#222222"/>
<path d="M272.663 550.989C273.527 550.251 274.637 550.21 314.92 550.087C337.652 550.046 356.889 550.087 357.67 550.21C358.41 550.374 359.479 550.907 360.013 551.44L361 552.425L361 574.486C361 599.091 360.918 599.829 358.287 605.283C356.437 609.138 351.792 613.935 347.969 615.945C338.31 621.03 326.348 619.307 318.332 611.598L315.66 609.056L312.742 611.844C307.562 616.847 301.355 619.184 294.285 618.774C284.584 618.2 276.938 612.5 273.116 603.028L272.006 600.239L271.882 576.004L271.759 551.809L272.663 550.989ZM282.94 592.94C284.173 595.482 286.146 596.835 288.9 597.081C290.997 597.245 291.326 597.163 293.34 595.769C296.423 593.678 310.728 579.079 311.467 577.316C313.605 572.272 310.07 566.777 304.685 566.695C303.411 566.654 302.301 566.982 301.191 567.638C298.807 569.033 283.721 584.697 282.817 586.707C281.871 588.88 281.871 590.766 282.94 592.94ZM320.757 593.432C322.155 595.933 325.772 597.861 328.074 597.286C330.541 596.712 332.431 595.154 339.83 587.486C349.408 577.603 349.614 577.316 349.614 574.527C349.696 568.376 343.612 564.645 338.556 567.679C336.871 568.704 321.456 584.656 320.593 586.297C319.647 588.06 319.689 591.586 320.757 593.432Z" fill="#222222"/>
<path d="M-0.0959473 327.607C0.767281 328.345 1.87714 328.387 42.1609 328.51C64.8925 328.551 84.13 328.51 84.911 328.387C85.6509 328.222 86.7197 327.689 87.2541 327.156L88.2406 326.172L88.2406 304.11C88.2406 279.506 88.1584 278.768 85.5276 273.314C83.6778 269.459 79.0329 264.661 75.21 262.652C65.5501 257.567 53.5883 259.289 45.5727 266.999L42.9008 269.541L39.9823 266.753C34.8029 261.75 28.596 259.412 21.5257 259.822C11.8248 260.396 4.17906 266.097 0.356214 275.569L-0.753641 278.358L-0.876962 302.593L-1.00027 326.787L-0.0959473 327.607ZM10.1805 285.657C11.4137 283.115 13.3868 281.761 16.1409 281.515C18.2373 281.351 18.5661 281.433 20.5803 282.827C23.6633 284.919 37.9681 299.517 38.708 301.281C40.8455 306.325 37.3104 311.82 31.9255 311.902C30.6513 311.943 29.5414 311.615 28.4315 310.958C26.0474 309.564 10.9615 293.899 10.0572 291.89C9.11177 289.717 9.11177 287.83 10.1805 285.657ZM47.9979 285.165C49.3955 282.663 53.0129 280.736 55.3148 281.31C57.7811 281.884 59.672 283.443 67.0711 291.111C76.6487 300.994 76.8543 301.281 76.8543 304.069C76.9365 310.22 70.8528 313.952 65.7968 310.917C64.1114 309.892 48.6967 293.94 47.8335 292.3C46.8881 290.537 46.9292 287.01 47.9979 285.165Z" fill="#222222"/>
<path d="M-0.0959473 107.509C0.767281 108.247 1.87714 108.288 42.1609 108.411C64.8925 108.452 84.13 108.411 84.911 108.288C85.6509 108.124 86.7197 107.591 87.2541 107.058L88.2406 106.074L88.2406 84.0121C88.2406 59.4077 88.1584 58.6696 85.5276 53.2156C83.6778 49.3609 79.0329 44.5631 75.21 42.5537C65.5501 37.4688 53.5883 39.1911 45.5727 46.9005L42.9008 49.443L39.9823 46.6545C34.8029 41.6516 28.596 39.3142 21.5257 39.7242C11.8248 40.2983 4.17906 45.9984 0.356214 55.471L-0.753641 58.2595L-0.876962 82.4948L-1.00027 106.689L-0.0959473 107.509ZM10.1805 65.5588C11.4137 63.0164 13.3868 61.6631 16.1409 61.4171C18.2373 61.2531 18.5661 61.3351 20.5803 62.7293C23.6633 64.8207 37.9681 79.4193 38.708 81.1826C40.8455 86.2265 37.3104 91.7214 31.9255 91.8034C30.6513 91.8445 29.5414 91.5164 28.4315 90.8603C26.0474 89.466 10.9615 73.8013 10.0572 71.7919C9.11177 69.6185 9.11177 67.7322 10.1805 65.5588ZM47.9979 65.0667C49.3955 62.5653 53.0129 60.6379 55.3148 61.212C57.7811 61.7861 59.672 63.3444 67.0711 71.0128C76.6487 80.8955 76.8543 81.1826 76.8543 83.9711C76.9365 90.1221 70.8528 93.8538 65.7968 90.8193C64.1114 89.7941 48.6967 73.8423 47.8335 72.202C46.8881 70.4387 46.9292 66.912 47.9979 65.0667Z" fill="#222222"/>
<path d="M-0.0959472 331.566C0.767281 330.828 1.87714 330.787 42.1609 330.664C64.8925 330.623 84.13 330.664 84.911 330.787C85.6509 330.951 86.7197 331.484 87.2541 332.018L88.2406 333.002L88.2406 355.064C88.2406 379.668 88.1584 380.406 85.5276 385.86C83.6778 389.715 79.0329 394.513 75.21 396.522C65.5502 401.607 53.5883 399.885 45.5727 392.175L42.9008 389.633L39.9823 392.421C34.803 397.424 28.596 399.762 21.5258 399.351C11.8248 398.777 4.17906 393.077 0.356219 383.605L-0.753637 380.816L-0.87696 356.581L-1.00027 332.387L-0.0959472 331.566ZM10.1805 373.517C11.4137 376.059 13.3868 377.413 16.1409 377.659C18.2373 377.823 18.5661 377.741 20.5803 376.346C23.6633 374.255 37.9681 359.656 38.708 357.893C40.8455 352.849 37.3104 347.354 31.9255 347.272C30.6513 347.231 29.5414 347.559 28.4315 348.215C26.0474 349.61 10.9615 365.274 10.0572 367.284C9.11177 369.457 9.11177 371.343 10.1805 373.517ZM47.9979 374.009C49.3955 376.51 53.0129 378.438 55.3148 377.864C57.7811 377.29 59.672 375.731 67.0711 368.063C76.6487 358.18 76.8543 357.893 76.8543 355.105C76.9365 348.954 70.8528 345.222 65.7968 348.256C64.1114 349.282 48.6967 365.233 47.8335 366.874C46.8881 368.637 46.9292 372.164 47.9979 374.009Z" fill="#222222"/>
<path d="M-0.0959472 111.469C0.767281 110.731 1.87714 110.69 42.1609 110.567C64.8925 110.526 84.13 110.567 84.911 110.69C85.6509 110.854 86.7197 111.387 87.2541 111.92L88.2406 112.904L88.2406 134.966C88.2406 159.57 88.1584 160.308 85.5276 165.762C83.6778 169.617 79.0329 174.415 75.21 176.424C65.5502 181.509 53.5883 179.787 45.5727 172.078L42.9008 169.535L39.9823 172.324C34.803 177.326 28.596 179.664 21.5258 179.254C11.8248 178.68 4.17906 172.98 0.356219 163.507L-0.753637 160.719L-0.87696 136.483L-1.00027 112.289L-0.0959472 111.469ZM10.1805 153.419C11.4137 155.962 13.3868 157.315 16.1409 157.561C18.2373 157.725 18.5661 157.643 20.5803 156.249C23.6633 154.157 37.9681 139.559 38.708 137.795C40.8455 132.752 37.3104 127.257 31.9255 127.175C30.6513 127.134 29.5414 127.462 28.4315 128.118C26.0474 129.512 10.9615 145.177 10.0572 147.186C9.11177 149.36 9.11177 151.246 10.1805 153.419ZM47.9979 153.911C49.3955 156.413 53.0129 158.34 55.3148 157.766C57.7811 157.192 59.672 155.634 67.0711 147.965C76.6487 138.083 76.8543 137.795 76.8543 135.007C76.9365 128.856 70.8528 125.124 65.7968 128.159C64.1114 129.184 48.6967 145.136 47.8335 146.776C46.8881 148.539 46.9292 152.066 47.9979 153.911Z" fill="#222222"/>
<path d="M-0.216513 182.116C-0.847001 182.854 -0.882028 183.803 -0.987109 218.241C-1.02214 237.674 -0.987109 254.12 -0.882028 254.788C-0.741919 255.42 -0.286567 256.334 0.168785 256.791L1.00944 257.634H19.854C40.8703 257.634 41.5008 257.564 46.1594 255.315C49.4519 253.734 53.5501 249.763 55.2664 246.495C59.6098 238.236 58.1386 228.01 51.5535 221.158L49.3819 218.874L51.7637 216.378C56.037 211.951 58.0336 206.644 57.6833 200.6C57.1929 192.307 52.3241 185.77 44.2329 182.502L41.851 181.554L21.15 181.448L0.484029 181.343L-0.216513 182.116ZM35.6162 190.901C37.7879 191.955 38.9438 193.642 39.1539 195.997C39.2941 197.789 39.224 198.07 38.0331 199.792C36.2467 202.427 23.7771 214.657 22.2709 215.289C17.9626 217.116 13.2689 214.094 13.1989 209.491C13.1638 208.401 13.4441 207.453 14.0045 206.504C15.1954 204.466 28.5758 191.569 30.2921 190.796C32.1485 189.987 33.7598 189.987 35.6162 190.901ZM36.0365 223.231C38.1732 224.426 39.8195 227.518 39.3291 229.486C38.8387 231.595 37.5077 233.211 30.9576 239.537C22.5161 247.724 22.2709 247.9 19.889 247.9C14.635 247.97 11.4475 242.77 14.0395 238.447C14.9152 237.006 28.5407 223.828 29.9418 223.09C31.448 222.282 34.4603 222.317 36.0365 223.231Z" fill="#222222"/>
<path d="M-0.216513 -37.9824C-0.847001 -37.2444 -0.882028 -36.2956 -0.987109 -1.85718C-1.02214 17.5759 -0.987109 34.022 -0.882028 34.6897C-0.741919 35.3222 -0.286567 36.2359 0.168785 36.6927L1.00944 37.5361H19.854C40.8703 37.5361 41.5008 37.4659 46.1594 35.2168C49.4519 33.6355 53.5501 29.6645 55.2664 26.3964C59.6098 18.1382 58.1386 7.91208 51.5535 1.05954L49.3819 -1.22464L51.7637 -3.71967C56.037 -8.14746 58.0336 -13.4538 57.6833 -19.4981C57.1929 -27.7914 52.3241 -34.3277 44.2329 -37.5958L41.851 -38.5446L21.15 -38.65L0.484029 -38.7555L-0.216513 -37.9824ZM35.6162 -29.1971C37.7879 -28.1428 38.9438 -26.456 39.1539 -24.1016C39.2941 -22.3094 39.224 -22.0282 38.0331 -20.3063C36.2467 -17.6707 23.7771 -5.44159 22.2709 -4.80904C17.9626 -2.9817 13.2689 -6.00385 13.1989 -10.6073C13.1638 -11.6967 13.4441 -12.6455 14.0045 -13.5944C15.1954 -15.6325 28.5758 -28.5294 30.2921 -29.3025C32.1485 -30.1107 33.7598 -30.1107 35.6162 -29.1971ZM36.0365 3.13287C38.1732 4.32767 39.8195 7.4201 39.3291 9.38801C38.8387 11.4965 37.5077 13.113 30.9576 19.4384C22.5161 27.6263 22.2709 27.802 19.889 27.802C14.635 27.8723 11.4475 22.6714 14.0395 18.349C14.9152 16.9082 28.5407 3.73027 29.9418 2.99231C31.448 2.18406 34.4603 2.2192 36.0365 3.13287Z" fill="#222222"/>
<path d="M117.717 182.116C118.347 182.854 118.383 183.803 118.488 218.241C118.523 237.674 118.488 254.12 118.383 254.788C118.242 255.42 117.787 256.334 117.332 256.791L116.491 257.634L97.6465 257.634C76.6302 257.634 75.9997 257.564 71.3411 255.315C68.0486 253.734 63.9504 249.763 62.2341 246.495C57.8907 238.236 59.3618 228.01 65.9469 221.158L68.1186 218.874L65.7368 216.378C61.4635 211.951 59.4669 206.644 59.8172 200.6C60.3076 192.307 65.1763 185.77 73.2676 182.502L75.6494 181.554L96.3505 181.448L117.016 181.343L117.717 182.116ZM81.8843 190.901C79.7126 191.955 78.5567 193.642 78.3465 195.997C78.2064 197.789 78.2765 198.07 79.4674 199.792C81.2538 202.427 93.7234 214.657 95.2296 215.289C99.5379 217.116 104.232 214.094 104.302 209.491C104.337 208.401 104.056 207.453 103.496 206.504C102.305 204.466 88.9247 191.569 87.2084 190.796C85.352 189.987 83.7407 189.987 81.8843 190.901ZM81.4639 223.231C79.3273 224.426 77.681 227.518 78.1714 229.486C78.6618 231.595 79.9928 233.211 86.5429 239.537C94.9844 247.724 95.2296 247.9 97.6114 247.9C102.866 247.97 106.053 242.77 103.461 238.447C102.585 237.006 88.9597 223.828 87.5587 223.09C86.0525 222.282 83.0402 222.317 81.4639 223.231Z" fill="#222222"/>
<path d="M117.717 -37.9824C118.347 -37.2444 118.383 -36.2956 118.488 -1.85718C118.523 17.5759 118.488 34.022 118.383 34.6897C118.242 35.3222 117.787 36.2359 117.332 36.6927L116.491 37.5361L97.6465 37.5361C76.6302 37.5361 75.9997 37.4659 71.3411 35.2168C68.0486 33.6355 63.9504 29.6645 62.2341 26.3964C57.8907 18.1382 59.3618 7.91208 65.9469 1.05954L68.1186 -1.22464L65.7368 -3.71966C61.4635 -8.14746 59.4669 -13.4538 59.8172 -19.4981C60.3076 -27.7914 65.1763 -34.3277 73.2676 -37.5958L75.6494 -38.5446L96.3505 -38.65L117.016 -38.7555L117.717 -37.9824ZM81.8843 -29.197C79.7126 -28.1428 78.5567 -26.456 78.3465 -24.1016C78.2064 -22.3094 78.2765 -22.0282 79.4674 -20.3063C81.2538 -17.6707 93.7234 -5.44158 95.2296 -4.80904C99.5379 -2.9817 104.232 -6.00384 104.302 -10.6073C104.337 -11.6967 104.056 -12.6455 103.496 -13.5944C102.305 -15.6325 88.9247 -28.5294 87.2084 -29.3025C85.352 -30.1107 83.7407 -30.1107 81.8843 -29.197ZM81.4639 3.13288C79.3273 4.32768 77.681 7.42011 78.1714 9.38801C78.6618 11.4965 79.9928 13.113 86.5429 19.4384C94.9844 27.6263 95.2296 27.802 97.6114 27.802C102.866 27.8723 106.053 22.6714 103.461 18.349C102.585 16.9082 88.9597 3.73028 87.5587 2.99231C86.0525 2.18406 83.0402 2.2192 81.4639 3.13288Z" fill="#222222"/>
<path d="M121.31 182.116C120.679 182.854 120.644 183.803 120.539 218.241C120.504 237.674 120.539 254.12 120.644 254.788C120.785 255.42 121.24 256.334 121.695 256.791L122.536 257.634H141.381C162.397 257.634 163.027 257.564 167.686 255.315C170.978 253.734 175.077 249.763 176.793 246.495C181.136 238.236 179.665 228.01 173.08 221.158L170.908 218.874L173.29 216.378C177.564 211.951 179.56 206.644 179.21 200.6C178.719 192.307 173.851 185.77 165.759 182.502L163.378 181.554L142.677 181.448L122.011 181.343L121.31 182.116ZM157.143 190.901C159.314 191.955 160.47 193.642 160.68 195.997C160.821 197.789 160.75 198.07 159.56 199.792C157.773 202.427 145.304 214.657 143.797 215.289C139.489 217.116 134.795 214.094 134.725 209.491C134.69 208.401 134.971 207.453 135.531 206.504C136.722 204.466 150.102 191.569 151.819 190.796C153.675 189.987 155.286 189.987 157.143 190.901ZM157.563 223.231C159.7 224.426 161.346 227.518 160.856 229.486C160.365 231.595 159.034 233.211 152.484 239.537C144.043 247.724 143.797 247.9 141.416 247.9C136.161 247.97 132.974 242.77 135.566 238.447C136.442 237.006 150.067 223.828 151.468 223.09C152.974 222.282 155.987 222.317 157.563 223.231Z" fill="#222222"/>
<path d="M121.31 -37.9824C120.679 -37.2444 120.644 -36.2956 120.539 -1.85718C120.504 17.5759 120.539 34.022 120.644 34.6897C120.785 35.3222 121.24 36.2359 121.695 36.6927L122.536 37.5361H141.381C162.397 37.5361 163.027 37.4659 167.686 35.2168C170.978 33.6355 175.077 29.6645 176.793 26.3964C181.136 18.1382 179.665 7.91208 173.08 1.05954L170.908 -1.22464L173.29 -3.71967C177.564 -8.14746 179.56 -13.4538 179.21 -19.4981C178.719 -27.7914 173.851 -34.3277 165.759 -37.5958L163.378 -38.5446L142.677 -38.65L122.011 -38.7555L121.31 -37.9824ZM157.143 -29.1971C159.314 -28.1428 160.47 -26.456 160.68 -24.1016C160.821 -22.3094 160.75 -22.0282 159.56 -20.3063C157.773 -17.6707 145.304 -5.44159 143.797 -4.80904C139.489 -2.9817 134.795 -6.00385 134.725 -10.6073C134.69 -11.6967 134.971 -12.6455 135.531 -13.5944C136.722 -15.6325 150.102 -28.5294 151.819 -29.3025C153.675 -30.1107 155.286 -30.1107 157.143 -29.1971ZM157.563 3.13287C159.7 4.32767 161.346 7.4201 160.856 9.38801C160.365 11.4965 159.034 13.113 152.484 19.4384C144.043 27.6263 143.797 27.802 141.416 27.802C136.161 27.8723 132.974 22.6714 135.566 18.349C136.442 16.9082 150.067 3.73027 151.468 2.99231C152.974 2.18406 155.987 2.2192 157.563 3.13287Z" fill="#222222"/>
<path d="M91.049 327.607C91.9122 328.345 93.022 328.387 133.306 328.51C156.037 328.551 175.275 328.51 176.056 328.387C176.796 328.222 177.865 327.689 178.399 327.156L179.385 326.172L179.385 304.11C179.385 279.506 179.303 278.768 176.673 273.314C174.823 269.459 170.178 264.661 166.355 262.652C156.695 257.567 144.733 259.289 136.718 266.999L134.046 269.541L131.127 266.753C125.948 261.75 119.741 259.412 112.671 259.822C102.97 260.396 95.324 266.097 91.5011 275.569L90.3913 278.358L90.2679 302.593L90.1446 326.787L91.049 327.607ZM101.325 285.657C102.559 283.115 104.532 281.761 107.286 281.515C109.382 281.351 109.711 281.433 111.725 282.827C114.808 284.919 129.113 299.517 129.853 301.281C131.99 306.325 128.455 311.82 123.07 311.902C121.796 311.943 120.686 311.615 119.576 310.958C117.192 309.564 102.106 293.899 101.202 291.89C100.257 289.717 100.257 287.83 101.325 285.657ZM139.143 285.165C140.54 282.663 144.158 280.736 146.46 281.31C148.926 281.884 150.817 283.443 158.216 291.111C167.794 300.994 167.999 301.281 167.999 304.069C168.081 310.22 161.998 313.952 156.942 310.917C155.256 309.892 139.842 293.94 138.978 292.3C138.033 290.537 138.074 287.01 139.143 285.165Z" fill="#222222"/>
<path d="M91.049 107.509C91.9122 108.247 93.022 108.288 133.306 108.411C156.037 108.452 175.275 108.411 176.056 108.288C176.796 108.124 177.865 107.591 178.399 107.058L179.385 106.074L179.385 84.0121C179.385 59.4077 179.303 58.6696 176.673 53.2156C174.823 49.3609 170.178 44.5631 166.355 42.5537C156.695 37.4688 144.733 39.1911 136.718 46.9005L134.046 49.443L131.127 46.6545C125.948 41.6516 119.741 39.3142 112.671 39.7242C102.97 40.2983 95.324 45.9984 91.5011 55.471L90.3913 58.2595L90.2679 82.4948L90.1446 106.689L91.049 107.509ZM101.325 65.5588C102.559 63.0164 104.532 61.6631 107.286 61.4171C109.382 61.2531 109.711 61.3351 111.725 62.7293C114.808 64.8207 129.113 79.4193 129.853 81.1826C131.99 86.2265 128.455 91.7214 123.07 91.8034C121.796 91.8445 120.686 91.5164 119.576 90.8603C117.192 89.466 102.106 73.8013 101.202 71.7919C100.257 69.6185 100.257 67.7322 101.325 65.5588ZM139.143 65.0667C140.54 62.5653 144.158 60.6379 146.46 61.212C148.926 61.7861 150.817 63.3444 158.216 71.0128C167.794 80.8955 167.999 81.1826 167.999 83.9711C168.081 90.1221 161.998 93.8538 156.942 90.8193C155.256 89.7941 139.842 73.8423 138.978 72.202C138.033 70.4387 138.074 66.912 139.143 65.0667Z" fill="#222222"/>
<path d="M91.049 331.566C91.9122 330.828 93.022 330.787 133.306 330.664C156.037 330.623 175.275 330.664 176.056 330.787C176.796 330.951 177.865 331.484 178.399 332.018L179.385 333.002L179.385 355.064C179.386 379.668 179.303 380.406 176.673 385.86C174.823 389.715 170.178 394.513 166.355 396.522C156.695 401.607 144.733 399.885 136.718 392.175L134.046 389.633L131.127 392.421C125.948 397.424 119.741 399.762 112.671 399.351C102.97 398.777 95.324 393.077 91.5011 383.605L90.3913 380.816L90.2679 356.581L90.1446 332.387L91.049 331.566ZM101.325 373.517C102.559 376.059 104.532 377.413 107.286 377.659C109.382 377.823 109.711 377.741 111.725 376.346C114.808 374.255 129.113 359.656 129.853 357.893C131.99 352.849 128.455 347.354 123.07 347.272C121.796 347.231 120.686 347.559 119.576 348.215C117.192 349.61 102.106 365.274 101.202 367.284C100.257 369.457 100.257 371.343 101.325 373.517ZM139.143 374.009C140.54 376.51 144.158 378.438 146.46 377.864C148.926 377.29 150.817 375.731 158.216 368.063C167.794 358.18 167.999 357.893 167.999 355.105C168.081 348.954 161.998 345.222 156.942 348.256C155.256 349.282 139.842 365.233 138.978 366.874C138.033 368.637 138.074 372.164 139.143 374.009Z" fill="#222222"/>
<path d="M91.049 111.469C91.9122 110.731 93.022 110.69 133.306 110.567C156.037 110.526 175.275 110.567 176.056 110.69C176.796 110.854 177.865 111.387 178.399 111.92L179.385 112.904L179.385 134.966C179.386 159.57 179.303 160.308 176.673 165.762C174.823 169.617 170.178 174.415 166.355 176.424C156.695 181.509 144.733 179.787 136.718 172.078L134.046 169.535L131.127 172.324C125.948 177.326 119.741 179.664 112.671 179.254C102.97 178.68 95.324 172.98 91.5011 163.507L90.3913 160.719L90.2679 136.483L90.1446 112.289L91.049 111.469ZM101.325 153.419C102.559 155.962 104.532 157.315 107.286 157.561C109.382 157.725 109.711 157.643 111.725 156.249C114.808 154.157 129.113 139.559 129.853 137.795C131.99 132.752 128.455 127.257 123.07 127.175C121.796 127.134 120.686 127.462 119.576 128.118C117.192 129.512 102.106 145.177 101.202 147.186C100.257 149.36 100.257 151.246 101.325 153.419ZM139.143 153.911C140.54 156.413 144.158 158.34 146.46 157.766C148.926 157.192 150.817 155.634 158.216 147.965C167.794 138.083 167.999 137.795 167.999 135.007C168.081 128.856 161.998 125.124 156.942 128.159C155.256 129.184 139.842 145.136 138.978 146.776C138.033 148.539 138.074 152.066 139.143 153.911Z" fill="#222222"/>
<path d="M-0.0959473 767.128C0.767281 767.866 1.87714 767.907 42.1609 768.03C64.8925 768.071 84.13 768.03 84.911 767.907C85.6509 767.743 86.7197 767.21 87.2541 766.677L88.2406 765.693L88.2406 743.631C88.2406 719.026 88.1584 718.288 85.5276 712.834C83.6778 708.98 79.0329 704.182 75.21 702.172C65.5501 697.087 53.5883 698.81 45.5727 706.519L42.9008 709.062L39.9823 706.273C34.8029 701.27 28.596 698.933 21.5257 699.343C11.8248 699.917 4.17906 705.617 0.356214 715.09L-0.753641 717.878L-0.876962 742.113L-1.00027 766.308L-0.0959473 767.128ZM10.1805 725.177C11.4137 722.635 13.3868 721.282 16.1409 721.036C18.2373 720.872 18.5661 720.954 20.5803 722.348C23.6633 724.439 37.9681 739.038 38.708 740.801C40.8455 745.845 37.3104 751.34 31.9255 751.422C30.6513 751.463 29.5414 751.135 28.4315 750.479C26.0474 749.085 10.9615 733.42 10.0572 731.411C9.11177 729.237 9.11177 727.351 10.1805 725.177ZM47.9979 724.685C49.3955 722.184 53.0129 720.257 55.3148 720.831C57.7811 721.405 59.672 722.963 67.0711 730.631C76.6487 740.514 76.8543 740.801 76.8543 743.59C76.9365 749.741 70.8528 753.472 65.7968 750.438C64.1114 749.413 48.6967 733.461 47.8335 731.821C46.8881 730.057 46.9292 726.531 47.9979 724.685Z" fill="#222222"/>
<path d="M-0.0959473 547.03C0.767281 547.768 1.87714 547.809 42.1609 547.932C64.8925 547.973 84.13 547.932 84.911 547.809C85.6509 547.645 86.7197 547.112 87.2541 546.579L88.2406 545.594L88.2406 523.533C88.2406 498.928 88.1584 498.19 85.5276 492.736C83.6778 488.881 79.0329 484.084 75.21 482.074C65.5501 476.989 53.5883 478.712 45.5727 486.421L42.9008 488.963L39.9823 486.175C34.8029 481.172 28.596 478.835 21.5257 479.245C11.8248 479.819 4.17906 485.519 0.356214 494.992L-0.753641 497.78L-0.876962 522.015L-1.00027 546.21L-0.0959473 547.03ZM10.1805 505.079C11.4137 502.537 13.3868 501.184 16.1409 500.938C18.2373 500.774 18.5661 500.856 20.5803 502.25C23.6633 504.341 37.9681 518.94 38.708 520.703C40.8455 525.747 37.3104 531.242 31.9255 531.324C30.6513 531.365 29.5414 531.037 28.4315 530.381C26.0474 528.987 10.9615 513.322 10.0572 511.312C9.11177 509.139 9.11177 507.253 10.1805 505.079ZM47.9979 504.587C49.3955 502.086 53.0129 500.158 55.3148 500.733C57.7811 501.307 59.672 502.865 67.0711 510.533C76.6487 520.416 76.8543 520.703 76.8543 523.492C76.9365 529.643 70.8528 533.374 65.7968 530.34C64.1114 529.315 48.6967 513.363 47.8335 511.722C46.8881 509.959 46.9292 506.433 47.9979 504.587Z" fill="#222222"/>
<path d="M-0.0959472 771.087C0.767281 770.349 1.87714 770.308 42.1609 770.185C64.8925 770.144 84.13 770.185 84.911 770.308C85.6509 770.472 86.7197 771.005 87.2541 771.538L88.2406 772.522L88.2406 794.584C88.2406 819.188 88.1584 819.927 85.5276 825.381C83.6778 829.235 79.0329 834.033 75.21 836.042C65.5502 841.127 53.5883 839.405 45.5727 831.696L42.9008 829.153L39.9823 831.942C34.803 836.945 28.596 839.282 21.5258 838.872C11.8248 838.298 4.17906 832.598 0.356219 823.125L-0.753637 820.337L-0.87696 796.101L-1.00027 771.907L-0.0959472 771.087ZM10.1805 813.037C11.4137 815.58 13.3868 816.933 16.1409 817.179C18.2373 817.343 18.5661 817.261 20.5803 815.867C23.6633 813.776 37.9681 799.177 38.708 797.414C40.8455 792.37 37.3104 786.875 31.9255 786.793C30.6513 786.752 29.5414 787.08 28.4315 787.736C26.0474 789.13 10.9615 804.795 10.0572 806.804C9.11177 808.978 9.11177 810.864 10.1805 813.037ZM47.9979 813.529C49.3955 816.031 53.0129 817.958 55.3148 817.384C57.7811 816.81 59.672 815.252 67.0711 807.583C76.6487 797.701 76.8543 797.414 76.8543 794.625C76.9365 788.474 70.8528 784.742 65.7968 787.777C64.1114 788.802 48.6967 804.754 47.8335 806.394C46.8881 808.158 46.9292 811.684 47.9979 813.529Z" fill="#222222"/>
<path d="M-0.0959472 550.989C0.767281 550.251 1.87714 550.21 42.1609 550.087C64.8925 550.046 84.13 550.087 84.911 550.21C85.6509 550.374 86.7197 550.907 87.2541 551.44L88.2406 552.425L88.2406 574.486C88.2406 599.091 88.1584 599.829 85.5276 605.283C83.6778 609.138 79.0329 613.935 75.21 615.945C65.5502 621.03 53.5883 619.307 45.5727 611.598L42.9008 609.056L39.9823 611.844C34.803 616.847 28.596 619.184 21.5258 618.774C11.8248 618.2 4.17906 612.5 0.356219 603.028L-0.753637 600.239L-0.87696 576.004L-1.00027 551.809L-0.0959472 550.989ZM10.1805 592.94C11.4137 595.482 13.3868 596.835 16.1409 597.081C18.2373 597.245 18.5661 597.163 20.5803 595.769C23.6633 593.678 37.9681 579.079 38.708 577.316C40.8455 572.272 37.3104 566.777 31.9255 566.695C30.6513 566.654 29.5414 566.982 28.4315 567.638C26.0474 569.033 10.9615 584.697 10.0572 586.707C9.11177 588.88 9.11177 590.766 10.1805 592.94ZM47.9979 593.432C49.3955 595.933 53.0129 597.861 55.3148 597.286C57.7811 596.712 59.672 595.154 67.0711 587.486C76.6487 577.603 76.8543 577.316 76.8543 574.527C76.9365 568.376 70.8528 564.645 65.7968 567.679C64.1114 568.704 48.6967 584.656 47.8335 586.297C46.8881 588.06 46.9292 591.586 47.9979 593.432Z" fill="#222222"/>
<path d="M-0.216513 621.636C-0.847001 622.374 -0.882028 623.323 -0.987109 657.761C-1.02214 677.195 -0.987109 693.641 -0.882028 694.308C-0.741919 694.941 -0.286567 695.855 0.168785 696.311L1.00944 697.155H19.854C40.8703 697.155 41.5008 697.085 46.1594 694.835C49.4519 693.254 53.5501 689.283 55.2664 686.015C59.6098 677.757 58.1386 667.531 51.5535 660.678L49.3819 658.394L51.7637 655.899C56.037 651.471 58.0336 646.165 57.6833 640.121C57.1929 631.827 52.3241 625.291 44.2329 622.023L41.851 621.074L21.15 620.969L0.484029 620.863L-0.216513 621.636ZM35.6162 630.422C37.7879 631.476 38.9438 633.163 39.1539 635.517C39.2941 637.309 39.224 637.59 38.0331 639.312C36.2467 641.948 23.7771 654.177 22.2709 654.81C17.9626 656.637 13.2689 653.615 13.1989 649.011C13.1638 647.922 13.4441 646.973 14.0045 646.024C15.1954 643.986 28.5758 631.089 30.2921 630.316C32.1485 629.508 33.7598 629.508 35.6162 630.422ZM36.0365 662.752C38.1732 663.946 39.8195 667.039 39.3291 669.007C38.8387 671.115 37.5077 672.732 30.9576 679.057C22.5161 687.245 22.2709 687.421 19.889 687.421C14.635 687.491 11.4475 682.29 14.0395 677.968C14.9152 676.527 28.5407 663.349 29.9418 662.611C31.448 661.803 34.4603 661.838 36.0365 662.752Z" fill="#222222"/>
<path d="M-0.216513 401.538C-0.847001 402.276 -0.882028 403.225 -0.987109 437.663C-1.02214 457.096 -0.987109 473.543 -0.882028 474.21C-0.741919 474.843 -0.286567 475.756 0.168785 476.213L1.00944 477.057H19.854C40.8703 477.057 41.5008 476.986 46.1594 474.737C49.4519 473.156 53.5501 469.185 55.2664 465.917C59.6098 457.659 58.1386 447.433 51.5535 440.58L49.3819 438.296L51.7637 435.801C56.037 431.373 58.0336 426.067 57.6833 420.022C57.1929 411.729 52.3241 405.193 44.2329 401.925L41.851 400.976L21.15 400.87L0.484029 400.765L-0.216513 401.538ZM35.6162 410.323C37.7879 411.378 38.9438 413.064 39.1539 415.419C39.2941 417.211 39.224 417.492 38.0331 419.214C36.2467 421.85 23.7771 434.079 22.2709 434.711C17.9626 436.539 13.2689 433.517 13.1989 428.913C13.1638 427.824 13.4441 426.875 14.0045 425.926C15.1954 423.888 28.5758 410.991 30.2921 410.218C32.1485 409.41 33.7598 409.41 35.6162 410.323ZM36.0365 442.653C38.1732 443.848 39.8195 446.941 39.3291 448.909C38.8387 451.017 37.5077 452.633 30.9576 458.959C22.5161 467.147 22.2709 467.323 19.889 467.323C14.635 467.393 11.4475 462.192 14.0395 457.87C14.9152 456.429 28.5407 443.251 29.9418 442.513C31.448 441.705 34.4603 441.74 36.0365 442.653Z" fill="#222222"/>
<path d="M117.717 621.636C118.347 622.374 118.383 623.323 118.488 657.761C118.523 677.195 118.488 693.641 118.383 694.308C118.242 694.941 117.787 695.855 117.332 696.311L116.491 697.155L97.6465 697.155C76.6302 697.155 75.9997 697.085 71.3411 694.835C68.0486 693.254 63.9504 689.283 62.2341 686.015C57.8907 677.757 59.3618 667.531 65.9469 660.678L68.1186 658.394L65.7368 655.899C61.4635 651.471 59.4669 646.165 59.8172 640.121C60.3076 631.827 65.1763 625.291 73.2676 622.023L75.6494 621.074L96.3505 620.969L117.016 620.863L117.717 621.636ZM81.8843 630.422C79.7126 631.476 78.5567 633.163 78.3465 635.517C78.2064 637.309 78.2765 637.59 79.4674 639.312C81.2538 641.948 93.7234 654.177 95.2296 654.81C99.5379 656.637 104.232 653.615 104.302 649.011C104.337 647.922 104.056 646.973 103.496 646.024C102.305 643.986 88.9247 631.089 87.2084 630.316C85.352 629.508 83.7407 629.508 81.8843 630.422ZM81.4639 662.752C79.3273 663.946 77.681 667.039 78.1714 669.007C78.6618 671.115 79.9928 672.732 86.5429 679.057C94.9844 687.245 95.2296 687.421 97.6114 687.421C102.866 687.491 106.053 682.29 103.461 677.968C102.585 676.527 88.9597 663.349 87.5587 662.611C86.0525 661.803 83.0402 661.838 81.4639 662.752Z" fill="#222222"/>
<path d="M117.717 401.538C118.347 402.276 118.383 403.225 118.488 437.663C118.523 457.096 118.488 473.543 118.383 474.21C118.242 474.843 117.787 475.756 117.332 476.213L116.491 477.057L97.6465 477.057C76.6302 477.057 75.9997 476.986 71.3411 474.737C68.0486 473.156 63.9504 469.185 62.2341 465.917C57.8907 457.659 59.3618 447.433 65.9469 440.58L68.1186 438.296L65.7368 435.801C61.4635 431.373 59.4669 426.067 59.8172 420.022C60.3076 411.729 65.1763 405.193 73.2676 401.925L75.6494 400.976L96.3505 400.87L117.016 400.765L117.717 401.538ZM81.8843 410.323C79.7126 411.378 78.5567 413.064 78.3465 415.419C78.2064 417.211 78.2765 417.492 79.4674 419.214C81.2538 421.85 93.7234 434.079 95.2296 434.711C99.5379 436.539 104.232 433.517 104.302 428.913C104.337 427.824 104.056 426.875 103.496 425.926C102.305 423.888 88.9247 410.991 87.2084 410.218C85.352 409.41 83.7407 409.41 81.8843 410.323ZM81.4639 442.653C79.3273 443.848 77.681 446.941 78.1714 448.909C78.6618 451.017 79.9928 452.633 86.5429 458.959C94.9844 467.147 95.2296 467.323 97.6114 467.323C102.866 467.393 106.053 462.192 103.461 457.87C102.585 456.429 88.9597 443.251 87.5587 442.513C86.0525 441.705 83.0402 441.74 81.4639 442.653Z" fill="#222222"/>
<path d="M121.31 621.636C120.679 622.374 120.644 623.323 120.539 657.761C120.504 677.195 120.539 693.641 120.644 694.308C120.785 694.941 121.24 695.855 121.695 696.311L122.536 697.155H141.381C162.397 697.155 163.027 697.085 167.686 694.835C170.978 693.254 175.077 689.283 176.793 686.015C181.136 677.757 179.665 667.531 173.08 660.678L170.908 658.394L173.29 655.899C177.564 651.471 179.56 646.165 179.21 640.121C178.719 631.827 173.851 625.291 165.759 622.023L163.378 621.074L142.677 620.969L122.011 620.863L121.31 621.636ZM157.143 630.422C159.314 631.476 160.47 633.163 160.68 635.517C160.821 637.309 160.75 637.59 159.56 639.312C157.773 641.948 145.304 654.177 143.797 654.81C139.489 656.637 134.795 653.615 134.725 649.011C134.69 647.922 134.971 646.973 135.531 646.024C136.722 643.986 150.102 631.089 151.819 630.316C153.675 629.508 155.286 629.508 157.143 630.422ZM157.563 662.752C159.7 663.946 161.346 667.039 160.856 669.007C160.365 671.115 159.034 672.732 152.484 679.057C144.043 687.245 143.797 687.421 141.416 687.421C136.161 687.491 132.974 682.29 135.566 677.968C136.442 676.527 150.067 663.349 151.468 662.611C152.974 661.803 155.987 661.838 157.563 662.752Z" fill="#222222"/>
<path d="M121.31 401.538C120.679 402.276 120.644 403.225 120.539 437.663C120.504 457.096 120.539 473.543 120.644 474.21C120.785 474.843 121.24 475.756 121.695 476.213L122.536 477.057H141.381C162.397 477.057 163.027 476.986 167.686 474.737C170.978 473.156 175.077 469.185 176.793 465.917C181.136 457.659 179.665 447.433 173.08 440.58L170.908 438.296L173.29 435.801C177.564 431.373 179.56 426.067 179.21 420.022C178.719 411.729 173.851 405.193 165.759 401.925L163.378 400.976L142.677 400.87L122.011 400.765L121.31 401.538ZM157.143 410.323C159.314 411.378 160.47 413.064 160.68 415.419C160.821 417.211 160.75 417.492 159.56 419.214C157.773 421.85 145.304 434.079 143.797 434.711C139.489 436.539 134.795 433.517 134.725 428.913C134.69 427.824 134.971 426.875 135.531 425.926C136.722 423.888 150.102 410.991 151.819 410.218C153.675 409.41 155.286 409.41 157.143 410.323ZM157.563 442.653C159.7 443.848 161.346 446.941 160.856 448.909C160.365 451.017 159.034 452.633 152.484 458.959C144.043 467.147 143.797 467.323 141.416 467.323C136.161 467.393 132.974 462.192 135.566 457.87C136.442 456.429 150.067 443.251 151.468 442.513C152.974 441.705 155.987 441.74 157.563 442.653Z" fill="#222222"/>
<path d="M91.049 767.128C91.9122 767.866 93.022 767.907 133.306 768.03C156.037 768.071 175.275 768.03 176.056 767.907C176.796 767.743 177.865 767.21 178.399 766.677L179.385 765.693L179.385 743.631C179.385 719.026 179.303 718.288 176.673 712.834C174.823 708.98 170.178 704.182 166.355 702.172C156.695 697.087 144.733 698.81 136.718 706.519L134.046 709.062L131.127 706.273C125.948 701.27 119.741 698.933 112.671 699.343C102.97 699.917 95.324 705.617 91.5011 715.09L90.3913 717.878L90.2679 742.113L90.1446 766.308L91.049 767.128ZM101.325 725.177C102.559 722.635 104.532 721.282 107.286 721.036C109.382 720.872 109.711 720.954 111.725 722.348C114.808 724.439 129.113 739.038 129.853 740.801C131.99 745.845 128.455 751.34 123.07 751.422C121.796 751.463 120.686 751.135 119.576 750.479C117.192 749.085 102.106 733.42 101.202 731.411C100.257 729.237 100.257 727.351 101.325 725.177ZM139.143 724.685C140.54 722.184 144.158 720.257 146.46 720.831C148.926 721.405 150.817 722.963 158.216 730.631C167.794 740.514 167.999 740.801 167.999 743.59C168.081 749.741 161.998 753.472 156.942 750.438C155.256 749.413 139.842 733.461 138.978 731.821C138.033 730.057 138.074 726.531 139.143 724.685Z" fill="#222222"/>
<path d="M91.049 547.03C91.9122 547.768 93.022 547.809 133.306 547.932C156.037 547.973 175.275 547.932 176.056 547.809C176.796 547.645 177.865 547.112 178.399 546.579L179.385 545.594L179.385 523.533C179.385 498.928 179.303 498.19 176.673 492.736C174.823 488.881 170.178 484.084 166.355 482.074C156.695 476.989 144.733 478.712 136.718 486.421L134.046 488.963L131.127 486.175C125.948 481.172 119.741 478.835 112.671 479.245C102.97 479.819 95.324 485.519 91.5011 494.992L90.3913 497.78L90.2679 522.015L90.1446 546.21L91.049 547.03ZM101.325 505.079C102.559 502.537 104.532 501.184 107.286 500.938C109.382 500.774 109.711 500.856 111.725 502.25C114.808 504.341 129.113 518.94 129.853 520.703C131.99 525.747 128.455 531.242 123.07 531.324C121.796 531.365 120.686 531.037 119.576 530.381C117.192 528.987 102.106 513.322 101.202 511.312C100.257 509.139 100.257 507.253 101.325 505.079ZM139.143 504.587C140.54 502.086 144.158 500.158 146.46 500.733C148.926 501.307 150.817 502.865 158.216 510.533C167.794 520.416 167.999 520.703 167.999 523.492C168.081 529.643 161.998 533.374 156.942 530.34C155.256 529.315 139.842 513.363 138.978 511.722C138.033 509.959 138.074 506.433 139.143 504.587Z" fill="#222222"/>
<path d="M91.049 771.087C91.9122 770.349 93.022 770.308 133.306 770.185C156.037 770.144 175.275 770.185 176.056 770.308C176.796 770.472 177.865 771.005 178.399 771.538L179.385 772.522L179.385 794.584C179.386 819.188 179.303 819.927 176.673 825.381C174.823 829.235 170.178 834.033 166.355 836.042C156.695 841.127 144.733 839.405 136.718 831.696L134.046 829.153L131.127 831.942C125.948 836.945 119.741 839.282 112.671 838.872C102.97 838.298 95.324 832.598 91.5011 823.125L90.3913 820.337L90.2679 796.101L90.1446 771.907L91.049 771.087ZM101.325 813.037C102.559 815.58 104.532 816.933 107.286 817.179C109.382 817.343 109.711 817.261 111.725 815.867C114.808 813.776 129.113 799.177 129.853 797.414C131.99 792.37 128.455 786.875 123.07 786.793C121.796 786.752 120.686 787.08 119.576 787.736C117.192 789.13 102.106 804.795 101.202 806.804C100.257 808.978 100.257 810.864 101.325 813.037ZM139.143 813.529C140.54 816.031 144.158 817.958 146.46 817.384C148.926 816.81 150.817 815.252 158.216 807.583C167.794 797.701 167.999 797.414 167.999 794.625C168.081 788.474 161.998 784.742 156.942 787.777C155.256 788.802 139.842 804.754 138.978 806.394C138.033 808.158 138.074 811.684 139.143 813.529Z" fill="#222222"/>
<path d="M91.049 550.989C91.9122 550.251 93.022 550.21 133.306 550.087C156.037 550.046 175.275 550.087 176.056 550.21C176.796 550.374 177.865 550.907 178.399 551.44L179.385 552.425L179.385 574.486C179.386 599.091 179.303 599.829 176.673 605.283C174.823 609.138 170.178 613.935 166.355 615.945C156.695 621.03 144.733 619.307 136.718 611.598L134.046 609.056L131.127 611.844C125.948 616.847 119.741 619.184 112.671 618.774C102.97 618.2 95.324 612.5 91.5011 603.028L90.3913 600.239L90.2679 576.004L90.1446 551.809L91.049 550.989ZM101.325 592.94C102.559 595.482 104.532 596.835 107.286 597.081C109.382 597.245 109.711 597.163 111.725 595.769C114.808 593.678 129.113 579.079 129.853 577.316C131.99 572.272 128.455 566.777 123.07 566.695C121.796 566.654 120.686 566.982 119.576 567.638C117.192 569.033 102.106 584.697 101.202 586.707C100.257 588.88 100.257 590.766 101.325 592.94ZM139.143 593.432C140.54 595.933 144.158 597.861 146.46 597.286C148.926 596.712 150.817 595.154 158.216 587.486C167.794 577.603 167.999 577.316 167.999 574.527C168.081 568.376 161.998 564.645 156.942 567.679C155.256 568.704 139.842 584.656 138.978 586.297C138.033 588.06 138.074 591.586 139.143 593.432Z" fill="#222222"/>
</svg>
